<svg width="403" height="64" viewBox="0 0 403 64" fill="none" xmlns="http://www.w3.org/2000/svg">
<g clip-path="url(#clip0_2345_193)">
<path d="M166.415 5.78629C168.913 7.51962 170.704 9.82522 172.159 12.4477C172.489 13.0944 172.489 13.0944 173.164 13.3591C173.247 13.0864 173.33 12.8136 173.416 12.5327C174.829 8.64943 177.422 6.14643 181.108 4.40037C183.78 3.29191 187.097 3.32225 189.831 4.2329C193.784 5.88218 196.139 8.88467 197.793 12.7133C199.235 16.5282 199.613 20.7038 199.788 24.7378C199.802 25.0161 199.815 25.2944 199.829 25.5812C200.887 49.0036 200.887 49.0036 194.888 56.2329C192.609 58.4732 189.781 59.7722 186.566 59.9708C183.628 59.9355 180.759 59.1793 178.515 57.2414C177.174 55.826 175.368 53.592 175.368 51.5727C175.152 51.6268 174.937 51.6808 174.715 51.7365C173.651 51.9062 172.722 51.8437 171.649 51.7475C171.283 51.7158 170.918 51.6842 170.541 51.6516C170.264 51.6256 169.986 51.5995 169.701 51.5727C169.62 51.8058 169.539 52.0389 169.456 52.279C168.356 55.1798 166.806 57.7857 163.896 59.2038C160.987 60.2534 157.839 60.2417 155.006 58.9586C154.197 58.5059 153.449 58.0187 152.699 57.4756C152.403 57.2624 152.403 57.2624 152.101 57.0448C147.518 53.1459 146.628 45.9026 146.146 40.3326C145.96 37.5467 145.983 34.7501 145.988 31.9595C145.989 30.8205 145.982 29.6819 145.974 28.543C145.954 21.1677 146.06 12.5849 151.412 6.80692C155.744 2.78654 161.509 2.8482 166.415 5.78629Z" fill="#50280E"/>
<path d="M375.609 4.97077C376.501 5.67002 377.31 6.39676 378.109 7.19893C378.73 7.87004 378.73 7.87004 379.702 7.76689C380.273 7.25731 380.273 7.25731 380.843 6.60184C382.829 4.55861 385.2 3.71422 388.039 3.63711C391.893 3.60096 394.798 4.46177 397.648 7.14553C402.354 12.0142 403.047 19.5268 403.053 25.9392C403.054 26.3431 403.055 26.747 403.056 27.1631C403.058 28.017 403.059 28.8708 403.058 29.7247C403.058 30.5887 403.061 31.4527 403.065 32.3166C403.157 50.9472 403.157 50.9472 397.434 56.8628C394.587 59.2511 391.053 60.1213 387.376 59.9222C384.375 59.5472 382.096 58.4008 380.016 56.2329C379.809 55.9253 379.601 55.6178 379.387 55.3009C379.211 55.4883 379.036 55.6757 378.855 55.8688C376.147 58.6676 373.681 59.8819 369.713 59.9829C366.758 59.8401 363.768 58.8031 361.603 56.7657C355.584 50.0455 355.658 40.2208 355.674 31.7815C355.675 30.6651 355.668 29.5489 355.66 28.4325C355.639 21.0904 355.773 12.5548 361.098 6.80694C364.922 3.25795 370.962 2.53073 375.609 4.97077Z" fill="#51280E"/>
<path d="M238.966 6.52417C247.223 13.0336 249.98 23.4436 251.127 33.4101C251.827 40.9634 252.552 49.779 247.566 56.1552C245.389 58.5025 242.369 59.6959 239.211 59.9489C236.127 59.9917 233.437 59.255 231.094 57.245C230.158 56.346 229.348 55.4099 228.577 54.3688C228.473 54.5266 228.37 54.6844 228.263 54.847C226.575 57.257 224.251 58.9603 221.335 59.6504C217.586 60.282 214.118 59.936 210.945 57.7863C210.655 57.6067 210.655 57.6067 210.359 57.4234C207.57 55.4401 206.246 51.4378 205.715 48.2341C204.408 36.3687 206.215 20.6805 214.006 11.0739C220.277 3.88904 230.504 0.786305 238.966 6.52417Z" fill="#51280E"/>
<path d="M329.878 3.0098C330.18 3.01132 330.483 3.01285 330.794 3.01442C335.99 3.09833 341.023 4.42963 344.793 8.10931C347.566 11.037 348.697 14.0635 348.612 18.0717C348.318 21.3078 347.064 24.3872 344.754 26.7185C342.329 28.5764 340.002 29.0815 336.984 28.7768C335.085 28.4242 333.32 27.7373 331.53 27.0292C330.792 29.7635 330.327 32.7464 331.53 35.4176C332.813 34.947 333.971 34.3347 335.171 33.6894C337.923 32.2869 340.629 31.9404 343.669 32.6688C346.523 33.6448 348.479 35.2676 349.8 37.9346C351.223 41.7009 350.765 46.409 349.162 50.0195C346.855 54.6618 343.38 57.5455 338.457 59.3399C332.59 61.2044 325.905 60.2366 320.443 57.6105C313.781 53.9639 309.264 48.1209 306.973 41.0098C304.523 32.2407 305.278 22.1674 309.691 14.0992C310.903 12.0296 312.486 10.358 314.214 8.69912C314.408 8.50808 314.603 8.31705 314.803 8.12023C318.819 4.44269 324.532 2.97759 329.878 3.0098Z" fill="#FDFDFA"/>
<path d="M69.0216 3.67054C69.6856 3.66987 70.3493 3.66425 71.0132 3.65833C76.6166 3.6351 82.7474 4.06054 87.2117 7.76695C89.7285 10.4894 90.8607 13.25 90.8127 16.9126C90.8101 17.1712 90.8075 17.4299 90.8048 17.6964C90.712 21.0276 89.5008 23.3439 87.2117 25.7864C86.9 25.9401 86.9 25.9401 86.582 26.097C86.6502 26.26 86.7184 26.423 86.7886 26.591C88.0298 29.9987 88.0542 33.9525 86.582 37.2815C86.7265 37.4097 86.871 37.5378 87.0198 37.6699C89.0988 39.6006 90.2613 41.5718 90.4352 44.4089C90.533 48.4225 90.0557 51.6095 87.2117 54.6796C82.4352 59.5666 75.0426 59.5216 68.6332 59.6489C64.0111 59.6564 59.8803 58.4736 56.3976 55.4029C50.5199 49.3574 50.5731 39.7199 50.5904 31.9051C50.5914 30.9748 50.584 30.0449 50.5761 29.1146C50.5518 21.7341 50.9646 13.4258 56.3435 7.71961C60.1072 4.36073 64.1324 3.66999 69.0216 3.67054Z" fill="#FDFDFA"/>
<path d="M18.3397 3.00972C18.7007 3.01147 19.0617 3.01322 19.4336 3.01503C27.473 3.1265 35.3896 4.80543 41.2445 10.5631C41.5514 10.8551 41.5514 10.8551 41.8644 11.1529C45.2328 14.608 46.102 19.0834 46.0817 23.6918C45.9779 28.6429 44.1801 32.9844 40.7255 36.6104C36.5719 40.3755 31.185 42.7623 25.4974 42.5959C25.2913 42.5851 25.0851 42.5743 24.8727 42.5631C24.8609 42.9648 24.8491 43.3665 24.837 43.7803C24.6622 48.712 24.415 53.8538 20.5239 57.4563C17.3304 59.9786 13.7082 60.2869 9.76017 59.9612C7.32159 59.4731 5.35871 58.1052 3.77814 56.233C0.539415 51.0762 -0.0992087 45.3086 -0.0946872 39.3556C-0.0960363 38.9494 -0.0973855 38.5432 -0.0987755 38.1246C-0.101099 37.2717 -0.101053 36.4188 -0.099376 35.5659C-0.0979203 34.7059 -0.100091 33.8461 -0.105833 32.9861C-0.163841 24.2161 -0.111632 13.9878 6.35592 7.16506C9.85343 3.91292 13.673 2.986 18.3397 3.00972ZM21.4094 22.0583C21.4094 22.6734 21.4094 23.2886 21.4094 23.9223C21.7211 23.9223 22.0328 23.9223 22.3539 23.9223C22.5617 23.6148 22.7695 23.3072 22.9836 22.9903C22.5507 22.5113 22.5507 22.5113 22.0391 22.0583C21.8313 22.0583 21.6235 22.0583 21.4094 22.0583Z" fill="#51280E"/>
<path d="M277.547 3.29605C278.458 3.30105 279.368 3.29607 280.278 3.29014C286.679 3.28312 294.18 3.63892 299.183 8.08868C301.595 10.5791 302.597 13.3464 302.565 16.7768C302.366 20.1663 301.417 23.4207 298.826 25.7865C297.169 27.0586 295.626 27.9524 293.512 28.1482C293.26 28.1724 293.009 28.1967 292.75 28.2217C292.56 28.2383 292.37 28.2549 292.175 28.2719C292.177 28.4555 292.178 28.6391 292.18 28.8282C292.355 51.5814 292.355 51.5814 287.522 56.8423C284.896 59.3546 281.574 59.9949 278.007 59.9613C274.694 59.736 271.992 58.6987 269.706 56.2744C266.773 52.495 266.56 48.3048 266.68 43.7137C266.688 43.3052 266.696 42.8967 266.704 42.4759C266.725 41.4033 266.75 40.3308 266.775 39.2583C266.801 38.1585 266.823 37.0587 266.845 35.9588C266.889 33.8107 266.937 31.6626 266.988 29.5147C266.774 29.497 266.56 29.4793 266.34 29.461C266.059 29.4359 265.777 29.4107 265.487 29.3848C265.209 29.3607 264.93 29.3366 264.643 29.3118C261.798 28.9305 259.146 27.11 257.4 24.9333C255.338 21.9698 254.66 18.8037 255.023 15.2234C255.9 11.2926 257.562 8.7302 260.88 6.36295C265.804 3.36386 271.942 3.25961 277.547 3.29605Z" fill="#FDFDFA"/>
<path d="M113.96 3.35436C114.257 3.35259 114.553 3.35082 114.859 3.34899C115.486 3.34607 116.113 3.34403 116.74 3.34283C117.678 3.33984 118.616 3.3302 119.554 3.32038C126.037 3.28487 133.425 3.61545 138.531 8.07766C139.285 8.85059 139.87 9.63882 140.42 10.5631C140.615 10.8857 140.615 10.8857 140.814 11.2148C142.315 14.2129 142.13 18.1788 141.168 21.3204C140.05 24.1045 138.407 25.9719 135.698 27.3398C134.988 27.5804 134.273 27.805 133.554 28.0146C133.188 28.1222 132.822 28.2298 132.445 28.3407C132.168 28.4205 131.891 28.5003 131.605 28.5825C131.598 28.9845 131.592 29.3865 131.586 29.8007C131.561 31.3219 131.534 32.843 131.505 34.3641C131.493 35.0169 131.482 35.6698 131.472 36.3226C131.23 51.9089 131.23 51.9089 127.196 56.6663C124.357 59.3669 120.971 59.9958 117.122 59.9612C114.706 59.7884 112.838 59.0998 110.825 57.7864C110.546 57.607 110.267 57.4276 109.979 57.2427C107.219 54.593 106.113 51.1973 106.061 47.4636C106.059 46.801 106.06 46.1383 106.063 45.4757C106.064 45.119 106.064 44.7622 106.065 44.3946C106.089 39.433 106.257 34.4734 106.417 29.5146C106.208 29.4975 105.999 29.4805 105.784 29.463C102.016 29.1292 99.5526 27.9707 96.9719 25.165C94.5191 21.9296 94.0664 18.5398 94.4531 14.6019C95.1105 11.2345 96.8815 8.57994 99.7391 6.62984C104.059 4.0468 108.986 3.37797 113.96 3.35436Z" fill="#FDFDFA"/>
<path d="M166.415 5.78629C168.913 7.51962 170.704 9.82522 172.159 12.4477C172.489 13.0944 172.489 13.0944 173.164 13.3591C173.247 13.0864 173.33 12.8136 173.416 12.5327C174.829 8.64943 177.422 6.14643 181.108 4.40037C183.78 3.29191 187.097 3.32225 189.831 4.2329C193.784 5.88218 196.139 8.88467 197.793 12.7133C199.235 16.5282 199.613 20.7038 199.788 24.7378C199.802 25.0161 199.815 25.2944 199.829 25.5812C200.887 49.0036 200.887 49.0036 194.888 56.2329C192.609 58.4732 189.781 59.7722 186.566 59.9708C183.628 59.9355 180.759 59.1793 178.515 57.2414C177.174 55.826 175.368 53.592 175.368 51.5727C175.152 51.6268 174.937 51.6808 174.715 51.7365C173.651 51.9062 172.722 51.8437 171.649 51.7475C171.283 51.7158 170.918 51.6842 170.541 51.6516C170.264 51.6256 169.986 51.5995 169.701 51.5727C169.62 51.8058 169.539 52.0389 169.456 52.279C168.356 55.1798 166.806 57.7857 163.896 59.2038C160.987 60.2534 157.839 60.2417 155.006 58.9586C154.197 58.5059 153.449 58.0187 152.699 57.4756C152.403 57.2624 152.403 57.2624 152.101 57.0448C147.518 53.1459 146.628 45.9026 146.146 40.3326C145.96 37.5467 145.983 34.7501 145.988 31.9595C145.989 30.8205 145.982 29.6819 145.974 28.543C145.954 21.1677 146.06 12.5849 151.412 6.80692C155.744 2.78654 161.509 2.8482 166.415 5.78629ZM155.533 11.1844C153.39 13.8938 152.614 17.0585 152.33 20.4271C152.305 20.7068 152.28 20.9866 152.254 21.2748C152.018 24.1476 151.974 27.0154 151.987 29.8964C151.991 30.757 151.987 31.6174 151.983 32.478C151.721 43.1061 151.721 43.1061 156.031 52.3846C157.522 53.6551 158.5 53.8657 160.421 53.8276C161.246 53.7839 161.246 53.7839 162.105 53.3397C163.948 51.0403 164.22 48.2809 164.214 45.4453C164.219 45.1137 164.223 44.7821 164.228 44.4405C164.241 43.3939 164.246 42.3475 164.25 41.3009C164.259 40.2443 164.27 39.1878 164.282 38.1313C164.289 37.4768 164.294 36.8223 164.297 36.1677C164.299 35.874 164.301 35.5803 164.304 35.2777C164.305 35.019 164.306 34.7602 164.307 34.4936C164.348 33.864 164.348 33.864 164.663 33.2426C165.263 33.3288 165.263 33.3288 165.923 33.5533C166.563 35.0548 166.928 36.5848 167.317 38.1664C168.162 41.9313 168.162 41.9313 170.055 45.2426C171.422 45.8877 172.628 46.0081 174.109 45.6698C176.874 43.8739 177.778 39.5783 178.55 36.6504C178.831 35.728 178.831 35.728 179.461 34.796C179.773 34.6935 180.084 34.591 180.405 34.4853C180.402 34.8361 180.399 35.1869 180.395 35.5483C180.384 36.8626 180.377 38.177 180.371 39.4914C180.368 40.0578 180.363 40.6243 180.358 41.1907C180.147 47.6977 180.147 47.6977 183.062 53.3009C184.794 53.9906 186.436 53.9699 188.277 53.7475C190.05 52.9975 190.947 51.7044 191.74 50.0193C193.884 44.3968 193.739 38.3145 193.728 32.3969C193.727 31.2252 193.735 30.0538 193.743 28.8822C193.868 19.6212 193.868 19.6212 190.067 11.3894C188.725 10.0864 187.311 9.56643 185.443 9.4562C183.479 9.54836 182.232 10.3316 180.852 11.6661C177.112 16.0579 176.107 22.5445 174.738 27.9611C174.219 27.9611 173.699 27.9611 173.164 27.9611C172.995 27.5975 172.995 27.5975 172.823 27.2266C172.395 26.306 171.966 25.386 171.536 24.4663C171.352 24.0722 171.169 23.6779 170.986 23.2833C167.532 15.3008 167.532 15.3008 161.2 9.63095C158.943 9.34123 157.207 9.60331 155.533 11.1844Z" fill="#FDFDF9"/>
<path d="M375.609 4.97077C376.501 5.67002 377.31 6.39676 378.109 7.19893C378.73 7.87004 378.73 7.87004 379.702 7.76689C380.273 7.25731 380.273 7.25731 380.843 6.60184C382.829 4.55861 385.2 3.71422 388.039 3.63711C391.893 3.60096 394.798 4.46177 397.648 7.14553C402.354 12.0142 403.047 19.5268 403.053 25.9392C403.054 26.3431 403.055 26.747 403.056 27.1631C403.058 28.017 403.059 28.8708 403.058 29.7247C403.058 30.5887 403.061 31.4527 403.065 32.3166C403.157 50.9472 403.157 50.9472 397.434 56.8628C394.587 59.2511 391.053 60.1213 387.376 59.9222C384.375 59.5472 382.096 58.4008 380.016 56.2329C379.809 55.9253 379.601 55.6178 379.387 55.3009C379.211 55.4883 379.036 55.6757 378.855 55.8688C376.147 58.6676 373.681 59.8819 369.713 59.9829C366.758 59.8401 363.768 58.8031 361.603 56.7657C355.584 50.0455 355.658 40.2208 355.674 31.7815C355.675 30.6651 355.668 29.5489 355.66 28.4325C355.639 21.0904 355.773 12.5548 361.098 6.80694C364.922 3.25795 370.962 2.53073 375.609 4.97077ZM364.904 11.495C361.328 16.127 361.56 23.3527 361.626 28.8693C361.637 29.8656 361.639 30.8615 361.639 31.8579C361.378 42.6755 361.378 42.6755 365.787 52.1431C367.177 53.3555 367.997 53.7976 369.882 53.8251C370.372 53.8372 370.372 53.8372 370.872 53.8494C372.329 53.6944 373.083 53.1416 374.091 52.12C374.77 51.1042 375.038 50.209 375.333 49.029C375.385 48.8247 375.438 48.6204 375.492 48.4099C375.853 46.9741 376.155 45.5311 376.398 44.0715C376.553 43.495 376.553 43.495 377.183 42.8737C378.095 42.7693 378.095 42.7693 379.19 42.7572C379.55 42.7484 379.909 42.7396 380.28 42.7305C381.276 42.8737 381.276 42.8737 382.006 43.3336C382.759 44.4477 382.849 45.5041 383.007 46.8154C383.372 49.2977 383.699 51.4256 385.507 53.3009C387.579 54.1259 390.034 54.1607 392.118 53.3009C394.52 51.859 395.461 49.2546 396.112 46.6805C397.201 41.8025 397.119 36.6797 397.1 31.7134C397.097 30.6557 397.1 29.5982 397.104 28.5406C397.231 19.2934 397.231 19.2934 393.24 11.1844C391.575 9.75201 389.945 9.51656 387.8 9.54723C386.334 9.69042 385.575 10.2872 384.625 11.3567C381.658 15.3804 382.395 21.3469 382.398 26.0392C382.397 26.9946 382.388 27.9498 382.379 28.9052C382.382 29.1978 382.384 29.4903 382.387 29.7917C382.363 31.8029 382.363 31.8029 381.634 32.8064C380.766 33.3686 380.221 33.3795 379.19 33.3397C378.736 33.3283 378.736 33.3283 378.273 33.3166C377.498 33.2426 377.498 33.2426 376.868 32.9319C376.469 31.7494 376.498 30.6307 376.487 29.398C376.478 28.8615 376.469 28.3251 376.46 27.7887C376.447 26.9513 376.435 26.1138 376.427 25.2763C376.394 22.2856 376.283 19.3325 375.852 16.3688C375.806 16.0156 375.806 16.0156 375.758 15.6552C375.413 13.5352 374.488 11.8887 372.893 10.4271C370.258 8.71614 367.028 9.3504 364.904 11.495Z" fill="#FDFDFA"/>
<path d="M238.966 6.52417C247.223 13.0336 249.98 23.4436 251.127 33.4101C251.827 40.9634 252.552 49.779 247.566 56.1552C245.389 58.5025 242.369 59.6959 239.211 59.9489C236.127 59.9917 233.437 59.255 231.094 57.245C230.158 56.346 229.348 55.4099 228.577 54.3688C228.473 54.5266 228.37 54.6844 228.263 54.847C226.575 57.257 224.251 58.9603 221.335 59.6504C217.586 60.282 214.118 59.936 210.945 57.7863C210.655 57.6067 210.655 57.6067 210.359 57.4234C207.57 55.4401 206.246 51.4378 205.715 48.2341C204.408 36.3687 206.215 20.6805 214.006 11.0739C220.277 3.88904 230.504 0.786305 238.966 6.52417ZM219.112 14.2912C211.977 22.5253 210.836 36.3028 211.575 46.6018C211.911 49.0083 212.561 51.3779 214.409 53.0873C216.129 54.0424 218.162 53.882 220.076 53.7475C221.804 53.2107 222.86 52.0962 223.854 50.6407C224.48 49.4003 224.811 48.1237 225.113 46.7766C225.217 46.4114 225.321 46.0461 225.428 45.6698C226.539 45.3044 227.558 45.2902 228.714 45.2815C229.337 45.2694 229.337 45.2694 229.972 45.2572C231.589 45.404 231.589 45.404 232.355 46.2912C232.734 47.315 233.02 48.3229 233.292 49.3767C233.8 51.1779 234.514 52.4477 236.116 53.546C237.917 54.1071 239.93 54.0323 241.623 53.2426C244.303 50.7918 245.145 48.4738 245.314 44.9108C245.442 33.9982 245.158 21.6927 237.392 13.0484C234.381 10.2998 231.625 9.46387 227.567 9.54602C224.047 9.79643 221.489 11.8624 219.112 14.2912Z" fill="#FDFDFA"/>
<path d="M69.2459 9.53406C69.8105 9.53932 69.8105 9.53932 70.3866 9.54468C80.1332 9.6926 80.1332 9.6926 82.842 12.085C84.5798 13.9412 84.7929 15.315 84.7594 17.8059C84.6322 19.4046 84.0289 20.2282 82.9023 21.3399C80.346 23.2583 77.5791 23.1284 74.5134 23.1542C71.8265 23.1834 71.8265 23.1834 69.5805 24.5438C69.5578 25.0676 69.5541 25.5923 69.5608 26.1166C69.5636 26.4021 69.5665 26.6877 69.5694 26.9819C69.573 27.2025 69.5767 27.4232 69.5805 27.6506C69.8567 27.6535 70.1329 27.6564 70.4175 27.6594C71.4493 27.6731 72.4806 27.6923 73.5122 27.715C73.9573 27.7238 74.4026 27.7304 74.8478 27.7348C75.4905 27.7415 76.1326 27.756 76.7751 27.7719C77.161 27.7784 77.5468 27.7849 77.9443 27.7916C79.225 27.9925 79.9097 28.4079 80.9148 29.204C81.8531 30.5928 81.7357 31.9252 81.5445 33.5535C80.853 34.9687 80.1556 35.712 78.7109 36.3496C77.1813 36.522 75.643 36.5002 74.1051 36.5134C71.8191 36.5019 71.8191 36.5019 69.8953 37.5923C69.7116 38.6928 69.7116 38.6928 69.8953 39.7671C70.7871 40.647 71.3856 40.4675 72.633 40.4734C73.0642 40.4797 73.4955 40.4862 73.9268 40.4928C74.6045 40.4998 75.282 40.5049 75.9597 40.5068C78.9611 40.5204 81.1691 40.6182 83.5713 42.5632C84.7782 44.0876 84.5901 46.322 84.3781 48.1554C83.7278 49.8064 82.6888 50.8708 81.2297 51.8836C80.247 52.2659 80.247 52.2659 79.2029 52.5632C78.8591 52.6637 78.5154 52.7642 78.1612 52.8678C75.729 53.4815 73.3347 53.5258 70.8391 53.5457C70.3695 53.5509 69.9 53.5593 69.4306 53.5712C66.0497 53.6561 63.522 53.3543 60.8239 51.1651C59.057 49.0231 58.0258 46.9194 57.4393 44.2137C57.361 43.86 57.2826 43.5064 57.2019 43.1421C56.7325 40.5239 56.622 37.9303 56.619 35.2756C56.6174 34.7793 56.6174 34.7793 56.6158 34.2731C56.6142 33.5773 56.6135 32.8815 56.6135 32.1857C56.6128 31.1325 56.6071 30.0794 56.6012 29.0262C56.5675 16.4855 56.5675 16.4855 60.707 12.1372C63.3175 9.71256 65.7807 9.48153 69.2459 9.53406Z" fill="#51280E"/>
<path d="M18.3397 3.00972C18.7007 3.01147 19.0617 3.01322 19.4336 3.01503C27.473 3.1265 35.3896 4.80543 41.2445 10.5631C41.5514 10.8551 41.5514 10.8551 41.8644 11.1529C45.2328 14.608 46.102 19.0834 46.0817 23.6918C45.9779 28.6429 44.1801 32.9844 40.7255 36.6104C36.5719 40.3755 31.185 42.7623 25.4974 42.5959C25.2913 42.5851 25.0851 42.5743 24.8727 42.5631C24.8609 42.9648 24.8491 43.3665 24.837 43.7803C24.6622 48.712 24.415 53.8538 20.5239 57.4563C17.3304 59.9786 13.7082 60.2869 9.76017 59.9612C7.32159 59.4731 5.35871 58.1052 3.77814 56.233C0.539415 51.0762 -0.0992087 45.3086 -0.0946872 39.3556C-0.0960363 38.9494 -0.0973855 38.5432 -0.0987755 38.1246C-0.101099 37.2717 -0.101053 36.4188 -0.099376 35.5659C-0.0979203 34.7059 -0.100091 33.8461 -0.105833 32.9861C-0.163841 24.2161 -0.111632 13.9878 6.35592 7.16506C9.85343 3.91292 13.673 2.986 18.3397 3.00972ZM10.2915 11.8447C6.52459 16.3711 5.8782 22.7307 5.89841 28.3726C5.89781 28.7536 5.89721 29.1345 5.89659 29.5271C5.89616 30.3278 5.8973 31.1285 5.89995 31.9292C5.90331 33.1371 5.89998 34.3449 5.89595 35.5528C5.89262 40.5223 5.89262 40.5223 6.25507 45.4757C6.27848 45.6885 6.30189 45.9012 6.326 46.1204C6.67394 48.8028 7.56989 51.4234 9.44532 53.4369C10.9305 54.4382 12.7635 54.2339 14.4828 54.0583C16.0744 53.5924 16.8799 52.6647 17.6652 51.243C19.1096 48.1463 19.0188 44.1386 19.0587 40.796C19.0681 40.3798 19.0681 40.3798 19.0776 39.9551C19.0798 39.7089 19.082 39.4627 19.0843 39.209C19.2373 38.3442 19.5455 37.9185 20.15 37.2816C21.0127 36.9978 21.5823 36.9218 22.4757 36.8944C22.7454 36.8842 23.0151 36.874 23.2929 36.8635C23.8545 36.8447 24.4162 36.8269 24.9778 36.8101C29.6565 36.6273 33.6044 35.0836 36.8367 31.6893C39.5756 28.5982 40.1341 25.4286 40.0897 21.3908C39.7981 18.0531 38.0592 15.5566 35.5774 13.3592C33.2482 11.5655 30.4984 10.759 27.7063 9.94176C27.4619 9.86807 27.2176 9.79438 26.9659 9.71846C25.2383 9.24141 23.5083 9.094 21.7242 9.00972C21.3371 8.9914 21.3371 8.9914 20.9422 8.9727C15.0499 8.72549 15.0499 8.72549 10.2915 11.8447Z" fill="#FDFDFA"/>
<path d="M335.623 9.63104C335.887 9.71074 336.151 9.79043 336.423 9.87255C338.908 10.7357 340.89 12.0506 342.078 14.4272C342.899 16.5558 342.718 18.3748 341.907 20.4878C341.414 21.5315 341.021 22.0491 340.031 22.6796C338.218 23.0034 336.685 22.8005 335.013 22.0582C333.227 21.271 331.572 21.1745 329.641 21.4369C327.562 22.311 326.482 24.2027 325.535 26.1517C324.89 27.8825 324.834 29.5935 324.82 31.4174C324.818 31.7679 324.818 31.7679 324.815 32.1255C324.854 35.0949 325.633 38.1165 327.675 40.3786C329.004 41.5024 330.185 41.9219 331.935 41.8155C333.833 41.4058 335.569 40.4254 337.176 39.3665C338.78 38.3136 340.373 38.1954 342.235 38.5242C343.232 39.0441 343.927 39.6889 344.439 40.699C344.759 44.0493 344.469 46.5105 342.55 49.398C342.429 49.5887 342.309 49.7793 342.185 49.9757C340.727 51.9767 338.022 53.2911 335.653 53.9126C330.563 54.6737 325.868 53.9378 321.455 51.2621C320.323 50.4033 319.311 49.4669 318.307 48.466C318.087 48.2593 317.867 48.0527 317.64 47.8398C314.044 44.2217 311.856 38.5681 311.695 33.5534C311.687 33.3459 311.679 33.1385 311.671 32.9247C311.435 26.2096 312.589 19.5973 316.997 14.2039C319.241 11.8493 322.044 10.0924 325.234 9.32036C325.464 9.26309 325.694 9.20582 325.931 9.14682C329.025 8.66288 332.626 8.72297 335.623 9.63104Z" fill="#51280E"/>
<path d="M114.536 9.25737C114.961 9.25471 114.961 9.25471 115.394 9.252C115.99 9.24909 116.586 9.24705 117.182 9.24584C118.076 9.24284 118.97 9.23319 119.864 9.22339C124.897 9.19445 130.702 9.16768 134.615 12.7574C136.057 14.4722 135.856 16.491 135.698 18.6409C135.161 20.2597 134.275 21.0947 132.864 22.0583C131.575 22.5476 130.41 22.6989 129.047 22.7768C127.867 22.8778 127.544 22.9669 126.548 23.6894C125.642 24.9571 125.585 26.1466 125.568 27.6678C125.564 27.9731 125.56 28.2783 125.555 28.5929C125.552 28.9207 125.549 29.2485 125.545 29.5863C125.535 30.292 125.524 30.9977 125.514 31.7034C125.499 32.8068 125.485 33.9102 125.473 35.0137C125.313 48.4579 125.313 48.4579 122.828 52.5438C121.129 54.0233 118.849 53.9373 116.696 53.9018C115.264 53.7096 114.547 53.3097 113.506 52.352C111.938 49.7922 111.964 47.0148 112.013 44.1095C112.026 43.3883 112.032 42.6673 112.036 41.9461C112.047 40.4171 112.065 38.8882 112.084 37.3593C112.107 35.5817 112.126 33.8042 112.137 32.0264C112.143 31.3183 112.155 30.6105 112.167 29.9025C112.171 29.4667 112.174 29.0309 112.177 28.5951C112.184 28.0275 112.184 28.0275 112.192 27.4485C112.072 26.2842 111.748 25.5418 111.14 24.5438C110.08 23.729 108.901 23.8398 107.598 23.8059C105.165 23.6912 103.408 23.2845 101.734 21.4758C100.365 19.4895 100.174 17.5785 100.435 15.2234C100.928 13.3202 102.028 12.2788 103.703 11.2829C107.192 9.55359 110.695 9.27664 114.536 9.25737Z" fill="#51280E"/>
<path d="M277.276 9.21591C278.163 9.22325 279.05 9.22228 279.937 9.22023C291.492 9.23699 291.492 9.23699 295.323 12.7378C296.761 14.5562 296.478 16.7701 296.268 18.9514C295.899 20.2786 295.201 20.9698 294.123 21.8446C292.605 22.6197 290.836 22.6437 289.161 22.7767C287.928 23.0208 287.551 23.2368 286.823 24.233C286.034 25.9879 286.094 27.7108 286.085 29.5946C286.08 29.9358 286.076 30.277 286.071 30.6286C286.056 31.72 286.045 32.8114 286.036 33.9029C285.96 42.0465 285.96 42.0465 285.588 45.756C285.551 46.1272 285.551 46.1272 285.513 46.5059C285.251 48.8429 284.884 51.2404 283.005 52.8543C281.626 53.7419 280.647 53.8232 279.03 53.8446C278.809 53.8536 278.587 53.8626 278.359 53.8719C276.733 53.8913 275.835 53.5557 274.544 52.5048C273.108 50.6663 272.931 49.4279 272.92 47.1426C272.918 46.9177 272.917 46.6927 272.915 46.461C272.912 45.9736 272.909 45.4862 272.907 44.9989C272.903 44.227 272.897 43.4552 272.89 42.6834C272.871 40.4894 272.854 38.2953 272.843 36.1012C272.837 34.7581 272.825 33.4152 272.811 32.0721C272.807 31.5609 272.804 31.0497 272.803 30.5386C272.802 29.8231 272.794 29.108 272.786 28.3926C272.783 27.9859 272.781 27.5792 272.778 27.1601C272.647 26.0321 272.393 25.4457 271.71 24.5437C270.627 23.7491 269.482 23.8399 268.168 23.8058C265.805 23.6968 264.173 23.32 262.481 21.6504C261.18 19.6048 260.667 17.9528 261.005 15.5339C261.581 13.6233 262.778 12.2496 264.469 11.1844C268.61 9.30664 272.79 9.17626 277.276 9.21591Z" fill="#50280E"/>
<path d="M229.147 24.4272C230.151 24.5438 230.151 24.5438 230.859 25.2039C232.506 27.8743 232.593 31.1234 232.355 34.1748C232.076 34.9942 231.88 35.3149 231.153 35.7974C229.883 36.2436 228.642 36.2395 227.317 36.0389C226.333 35.4175 226.333 35.4175 225.743 34.4855C225.629 33.5514 225.626 32.9128 225.743 32.0001C225.773 31.7397 225.803 31.4794 225.834 31.2112C226.798 24.7363 226.798 24.7363 229.147 24.4272Z" fill="#FAF9F5"/>
<path d="M22.9836 18.9514C24.4688 19.4962 25.7507 20.0732 26.8011 21.2621C27.146 22.2589 27.2498 22.8751 27.0766 23.9223C25.9928 25.6471 24.6527 26.5053 22.6688 27.0291C21.3873 27.1971 20.1539 27.3304 18.8906 27.0291C17.8045 25.8308 17.7829 24.5298 17.7887 22.9902C17.7797 22.7732 17.7708 22.5561 17.7616 22.3325C17.7569 21.0898 17.8974 20.5635 18.7037 19.5922C20.1824 18.4319 21.1846 18.5599 22.9836 18.9514ZM21.4094 22.0582C21.4094 22.6733 21.4094 23.2885 21.4094 23.9223C21.7211 23.9223 22.0328 23.9223 22.3539 23.9223C22.5617 23.6147 22.7695 23.3071 22.9836 22.9902C22.5507 22.5113 22.5507 22.5113 22.0391 22.0582C21.8313 22.0582 21.6235 22.0582 21.4094 22.0582Z" fill="#FBFAF7"/>
</g>
<defs>
<clipPath id="clip0_2345_193">
<rect width="403" height="64" fill="white"/>
</clipPath>
</defs>
</svg>
