<svg width="80" height="70" viewBox="0 0 80 70" fill="none" xmlns="http://www.w3.org/2000/svg">
<g clip-path="url(#clip0_2345_212)">
<path d="M56.6484 21.4217C57.2034 21.8421 57.5569 22.4248 57.6775 23.0996C57.7537 23.4985 57.8617 23.6496 58.2098 23.8923C58.3965 24.0034 58.5854 24.11 58.7755 24.2156C59.2665 24.4911 59.6946 24.7993 60.1203 25.1618C60.1747 25.208 60.2291 25.2542 60.2852 25.3017C62.8566 27.5222 64.1463 30.3553 64.7881 33.5859C64.8646 33.4673 64.8646 33.4673 64.9427 33.3463C65.9401 31.8155 67.0881 30.2249 69.0034 29.7854C69.1149 29.7653 69.2264 29.7453 69.3413 29.7246C69.7142 29.5821 69.8598 29.3987 70.1088 29.1039C70.7353 28.39 71.5141 27.7652 72.4857 27.5758C72.6461 27.5727 72.8067 27.5744 72.9671 27.5796C73.0606 27.5815 73.1541 27.5834 73.2505 27.5853C73.4445 27.5899 73.6385 27.5957 73.8325 27.6026C74.4418 27.6125 74.8867 27.524 75.4493 27.3035C75.8449 27.1716 76.2232 27.1707 76.638 27.1781C76.7163 27.1767 76.7945 27.1753 76.8752 27.1739C77.3813 27.1769 77.6746 27.2522 78.0756 27.5758C78.3665 27.8937 78.4206 28.2126 78.4038 28.6254C78.2934 29.1972 78.0023 29.713 77.7441 30.2344C77.4946 30.7427 77.256 31.2559 77.016 31.7685C76.9885 31.827 76.9611 31.8856 76.9328 31.9459C76.3594 33.168 75.8105 34.3996 75.2658 35.6337C74.9976 36.2412 74.728 36.848 74.458 37.4548C73.5801 39.4282 72.7035 41.4021 71.8312 43.3778C71.7014 43.6719 71.5714 43.966 71.4414 44.26C71.0351 45.1797 70.6298 46.0999 70.2277 47.0213C70.0392 47.4531 69.85 47.8847 69.6608 48.3163C69.5717 48.52 69.4829 48.7237 69.3944 48.9276C67.9236 52.3155 67.9236 52.3155 66.9874 53.2955C66.9323 53.3555 66.8773 53.4156 66.8206 53.4774C66.3556 53.9577 65.8362 54.297 65.2463 54.6212C65.1606 54.6691 65.075 54.7169 64.9867 54.7663C62.4243 56.0968 59.3642 56.7739 56.6008 57.619C56.4087 57.6779 56.2165 57.7367 56.0244 57.7956C55.6575 57.9079 55.2905 58.0197 54.9233 58.1311C54.103 58.3811 53.2875 58.6392 52.4799 58.9255C52.3777 58.9617 52.3777 58.9617 52.2734 58.9987C48.035 60.5261 43.7968 63.0239 41.7869 67.0834C41.6552 67.375 41.5315 67.6676 41.4204 67.9672C41.2562 67.972 41.092 67.9754 40.9278 67.9783C40.8364 67.9803 40.745 67.9824 40.6508 67.9845C40.4124 67.9672 40.4124 67.9672 40.2291 67.7904C40.2095 67.5475 40.2013 67.3137 40.2015 67.0706C40.201 66.9973 40.2005 66.9241 40.2 66.8486C40.1989 66.6083 40.1995 66.368 40.2005 66.1277C40.2006 66.0458 40.2007 65.9639 40.2009 65.8795C40.2073 63.7436 40.4497 61.668 40.8706 59.5707C40.8079 59.6032 40.7452 59.6356 40.6806 59.669C40.5982 59.7104 40.5158 59.7518 40.431 59.7945C40.3494 59.836 40.2678 59.8775 40.1837 59.9203C39.9542 60.0127 39.9542 60.0127 39.6563 59.9685C39.5732 59.9247 39.49 59.881 39.4043 59.8359C39.2212 59.7472 39.038 59.6587 38.8545 59.5707C38.8674 59.6431 38.8804 59.7154 38.8937 59.79C39.2695 61.913 39.51 63.9764 39.5189 66.1332C39.5194 66.2091 39.5199 66.2849 39.5204 66.3631C39.5215 66.5797 39.5212 66.7963 39.5203 67.0129C39.5207 67.0786 39.521 67.1442 39.5214 67.2118C39.5183 67.5415 39.5073 67.6857 39.3127 67.9672C39.0743 67.9931 39.0743 67.9931 38.7972 67.9838C38.7053 67.9814 38.6134 67.979 38.5187 67.9765C38.4128 67.9719 38.4128 67.9719 38.3047 67.9672C38.2812 67.907 38.2577 67.8469 38.2335 67.7849C37.7383 66.5757 37.0985 65.492 36.197 64.5202C36.0918 64.4044 36.0918 64.4044 35.9844 64.2862C35.3677 63.6147 34.7418 62.9996 33.9977 62.4598C33.929 62.4099 33.8604 62.3601 33.7896 62.3087C33.5848 62.1611 33.3791 62.0147 33.173 61.8687C33.1192 61.8301 33.0653 61.7914 33.0099 61.7516C32.2851 61.2364 31.5055 60.8171 30.7102 60.4121C30.5536 60.3324 30.3976 60.2517 30.2415 60.171C28.2142 59.1608 26.0257 58.4908 23.8565 57.8284C23.5296 57.7283 23.2031 57.6271 22.8766 57.5261C21.926 57.232 20.9749 56.9398 20.0234 56.6487C13.3325 54.6009 13.3325 54.6009 11.9212 52.2442C11.8816 52.1786 11.8421 52.113 11.8013 52.0453C11.4122 51.3872 11.0984 50.707 10.7961 50.0087C10.7348 49.8693 10.6733 49.7299 10.6118 49.5906C10.4767 49.2843 10.3422 48.9778 10.2082 48.671C9.97359 48.1344 9.73668 47.5987 9.49956 47.063C9.14312 46.2576 8.78715 45.4519 8.43176 44.646C8.36365 44.4915 8.36365 44.4915 8.29416 44.3339C8.1109 43.9183 7.92766 43.5027 7.74444 43.087C6.54943 40.3762 5.3508 37.6671 4.13539 34.9647C4.03092 34.7323 3.92656 34.5 3.82221 34.2675C3.08051 32.616 2.33616 30.9668 1.54442 29.3368C1.33185 28.8745 1.29684 28.4277 1.37456 27.9293C1.57812 27.5727 1.79788 27.3513 2.1993 27.2223C2.48902 27.1976 2.77914 27.1977 3.06987 27.1946C3.18646 27.1908 3.18646 27.1908 3.3054 27.1869C3.75941 27.1826 4.1053 27.235 4.52713 27.4008C5.07809 27.6125 5.55983 27.6047 6.14547 27.5758C7.26677 27.5207 8.09893 27.7794 8.98052 28.4596C9.78655 29.1758 9.78655 29.1758 10.0258 29.5392C10.2355 29.7658 10.4265 29.7734 10.7331 29.8241C11.7457 30.0285 12.3746 30.5069 13.1042 31.1995C13.1732 31.2649 13.2422 31.3303 13.3133 31.3977C13.9689 32.059 14.5125 32.8554 14.937 33.6743C14.9542 33.5883 14.9542 33.5883 14.9718 33.5006C15.4327 31.2236 16.0974 29.0835 17.5945 27.2223C17.6592 27.1403 17.724 27.0584 17.7907 26.974C20.0569 24.2025 23.2636 22.5751 26.8614 22.0546C27.1026 22.0296 27.3406 22.0154 27.583 22.0076C27.6858 22.0041 27.7886 22.0005 27.8945 21.9969C31.1186 21.9415 34.1038 23.022 36.5636 25.0127C36.6725 25.099 36.6725 25.099 36.7837 25.187C37.2138 25.5365 37.5832 25.9183 37.9381 26.3384C38.0101 26.4232 38.082 26.508 38.1561 26.5953C38.8457 27.4245 39.4972 28.3009 39.7709 29.3435C39.8314 29.3435 39.8919 29.3435 39.9542 29.3435C39.9657 29.2546 39.9657 29.2546 39.9774 29.1639C40.0659 28.8246 40.2284 28.5403 40.4066 28.2387C40.4433 28.1765 40.4799 28.1143 40.5176 28.0503C42.3347 25.0382 45.3081 23.1733 48.7289 22.2703C49.3653 22.13 49.984 22.0796 50.6345 22.0425C51.5776 21.988 52.3375 21.9124 53.1994 21.5243C53.5595 21.3706 53.9144 21.2703 54.2955 21.179C54.4699 21.137 54.4699 21.137 54.6478 21.0941C55.3875 20.9645 56.0104 21.034 56.6484 21.4217ZM39.7709 44.192C39.6976 44.2983 39.6252 44.4052 39.5533 44.5123C39.0969 45.1076 38.3784 45.4482 37.6317 45.5878C37.3645 45.6079 37.1032 45.597 36.8357 45.5859C36.2443 45.5451 36.2443 45.5451 35.7055 45.7432C35.5704 45.8984 35.4646 46.043 35.3723 46.2248C35.5142 46.5602 35.7298 46.7529 36.0023 46.9981C37.8504 48.7281 39.0238 51.0349 39.7709 53.3839C39.9673 53.3127 39.9673 53.3127 40.0263 53.1364C40.0496 53.0672 40.073 52.998 40.097 52.9268C40.1243 52.8489 40.1515 52.7709 40.1796 52.6907C40.2239 52.5635 40.2239 52.5635 40.2692 52.4337C41.0357 50.3315 42.212 48.5379 43.803 46.9319C43.9895 46.728 44.1714 46.5213 44.3528 46.3132C44.1782 46.0196 43.9996 45.8019 43.7113 45.6061C43.3614 45.5641 43.0358 45.579 42.684 45.5971C41.9023 45.6173 41.1315 45.3472 40.504 44.899C40.3176 44.7172 40.1482 44.5308 39.9828 44.3311C39.9431 44.2852 39.9034 44.2393 39.8625 44.192C39.8323 44.192 39.8021 44.192 39.7709 44.192Z" fill="#52280E"/>
<path d="M55.9221 22.2342C56.6818 22.8836 56.8619 23.9914 56.9989 24.9244C57.006 25.1284 57.0087 25.3327 57.0078 25.5368C57.0075 25.6508 57.0072 25.7647 57.0069 25.8821C57.0061 26.0011 57.0054 26.1201 57.0046 26.2391C57.0041 26.3601 57.0037 26.4812 57.0033 26.6023C57.0023 26.8973 57.0007 27.1924 56.9989 27.4875C57.379 27.5145 57.379 27.5145 57.7148 27.377C57.9196 27.0858 57.929 26.7725 57.9442 26.4283C57.9481 26.3457 57.9519 26.2631 57.9559 26.178C57.9595 26.0924 57.9631 26.0068 57.9668 25.9187C57.9727 25.7883 57.9727 25.7883 57.9788 25.6552C57.9885 25.4411 57.9978 25.2269 58.0069 25.0127C60.8848 26.723 62.7247 29.5167 63.4994 32.6524C63.6162 33.23 63.6241 33.795 63.5968 34.3814C63.5169 34.4202 63.4371 34.4589 63.3548 34.4988C61.1999 35.5871 60.2258 37.5705 59.1051 39.5545C57.6835 42.0709 56.2104 44.5584 54.1132 46.6168C54.0215 46.7084 53.9319 46.8021 53.8446 46.8976C53.4024 47.3618 52.9149 47.6141 52.3296 47.8834C52.2329 47.9293 52.1363 47.9752 52.0367 48.0224C51.7288 48.1683 51.42 48.3125 51.1111 48.4566C48.4485 49.6838 48.4485 49.6838 46.0023 51.2627C45.918 51.3262 45.8336 51.3897 45.7467 51.455C43.8432 52.9192 42.7325 54.6833 41.8657 56.8465C41.8377 56.9158 41.8098 56.9851 41.781 57.0565C41.7208 57.2086 41.6625 57.3614 41.6057 57.5148C41.5755 57.5936 41.5453 57.6725 41.5142 57.7538C41.4876 57.8254 41.4611 57.897 41.4338 57.9708C41.2762 58.2498 41.0579 58.3462 40.761 58.464C40.5957 58.5102 40.5957 58.5102 40.4124 58.5102C40.2929 54.4787 41.4417 50.8205 44.3442 47.8334C44.4075 47.7692 44.4709 47.7051 44.5361 47.639C44.6013 47.5685 44.6665 47.498 44.7337 47.4253C44.797 47.3591 44.8603 47.2929 44.9255 47.2247C44.9808 47.166 45.0361 47.1074 45.0931 47.0469C45.2692 46.9319 45.2692 46.9319 45.4854 46.9468C45.6508 46.997 45.8145 47.0524 45.9765 47.1122C46.3718 47.2238 46.7379 47.2309 47.1478 47.2302C47.2283 47.2302 47.3088 47.2301 47.3917 47.23C48.1168 47.2174 48.975 47.1596 49.5654 46.713C49.6931 46.5756 49.6931 46.5756 49.6506 46.3519C49.5903 46.1237 49.5903 46.1237 49.3929 45.9597C49.1117 45.9838 48.8761 46.0353 48.614 46.1365C47.8191 46.4431 46.8401 46.4033 46.0381 46.1413C45.5387 45.9288 45.0951 45.6344 44.7194 45.2526C44.8237 44.9508 44.9002 44.9046 45.1546 44.7168C45.5838 44.3674 45.7897 43.9793 46.0023 43.485C46.036 43.4098 46.0696 43.3346 46.1043 43.2571C46.2147 42.9664 46.215 42.7312 46.1856 42.4244C46.0975 42.2362 46.0975 42.2362 45.9107 42.1592C45.7267 42.1841 45.5432 42.2133 45.3608 42.2476C45.3386 42.3244 45.3164 42.4012 45.2935 42.4803C45.0221 43.3804 44.7388 43.9607 43.8946 44.4572C43.2686 44.7078 42.5945 44.7496 41.952 44.5369C41.2688 44.233 40.8719 43.9439 40.5999 43.2678C40.4628 42.8667 40.3468 42.4948 40.4124 42.0708C40.6375 41.8892 40.6375 41.8892 40.945 41.7283C41.0546 41.6682 41.164 41.6078 41.2733 41.5471C41.3286 41.5168 41.384 41.4866 41.441 41.4554C42.2118 41.0212 42.8087 40.5779 43.1902 39.7894C43.3048 39.2768 43.3608 38.7608 43.1042 38.2814C42.8119 37.9103 42.5188 37.7101 42.0619 37.5632C41.8501 37.5548 41.6381 37.5518 41.4261 37.5522C41.2576 37.5519 41.2576 37.5519 41.0857 37.5515C40.8373 37.561 40.6484 37.5891 40.4124 37.6516C40.3995 36.8133 40.3898 35.975 40.3839 35.1366C40.381 34.7472 40.3772 34.3577 40.3709 33.9683C40.3648 33.5912 40.3616 33.2142 40.3602 32.8371C40.3592 32.6945 40.3572 32.5519 40.3542 32.4093C40.307 30.0753 41.5787 28.048 43.203 26.3841C44.6673 24.9891 46.502 23.9709 48.4765 23.4218C48.544 23.402 48.6114 23.3822 48.6809 23.3618C49.1138 23.2439 49.4976 23.2297 49.9427 23.2451C49.6795 23.5029 49.4116 23.7531 49.1359 23.9984C49.0115 24.1118 48.8872 24.2253 48.7629 24.3388C48.6986 24.3949 48.6344 24.4509 48.5682 24.5087C48.3936 24.6704 48.2424 24.8172 48.11 25.0127C48.0975 25.3549 48.0975 25.3549 48.2016 25.6314C48.4451 25.7286 48.4451 25.7286 48.7514 25.7198C48.9953 25.5564 49.1796 25.3423 49.3757 25.1287C50.6439 23.8368 53.9469 21.3183 55.9221 22.2342Z" fill="#FEE5C6"/>
<path d="M35.576 25.6048C35.8518 25.842 36.1161 26.0895 36.3803 26.3385C36.4889 26.4351 36.4889 26.4351 36.5997 26.5336C37.9023 27.7195 39.258 29.7209 39.3237 31.4977C39.3235 31.6113 39.3233 31.725 39.3231 31.8421C39.3231 31.9051 39.3231 31.968 39.3232 32.033C39.3231 32.24 39.3224 32.4471 39.3217 32.6541C39.3215 32.7982 39.3214 32.9422 39.3213 33.0862C39.3209 33.4644 39.32 33.8427 39.319 34.2209C39.3181 34.6072 39.3176 34.9934 39.3172 35.3797C39.3162 36.137 39.3146 36.8943 39.3127 37.6516C39.2432 37.6376 39.1737 37.6236 39.1021 37.6091C38.421 37.4829 37.7007 37.4286 37.0962 37.7953C36.7146 38.0894 36.5051 38.3488 36.4472 38.8289C36.4131 39.626 36.6436 40.1492 37.1888 40.7374C37.5468 41.0683 37.9647 41.2996 38.3906 41.5405C38.4795 41.5921 38.5684 41.6437 38.66 41.6969C38.8769 41.8227 39.0944 41.9473 39.3127 42.0708C39.2466 42.7943 39.1233 43.4189 38.6483 44.0042C37.9783 44.5036 37.314 44.7032 36.4719 44.634C35.7225 44.5004 35.2152 44.1083 34.7423 43.5457C34.612 43.2456 34.5618 42.9492 34.5132 42.6281C34.4476 42.3949 34.383 42.3004 34.181 42.1592C33.8951 42.1659 33.8951 42.1659 33.6312 42.2476C33.4564 42.5846 33.4981 42.9119 33.6086 43.2616C33.9026 43.9988 34.2745 44.4988 34.9141 44.9875C34.8642 45.3202 34.7383 45.4458 34.4674 45.6504C33.6178 46.2504 32.7523 46.4336 31.7068 46.3132C31.4339 46.234 31.1771 46.1391 30.9146 46.0326C30.6344 45.938 30.4291 45.9604 30.1489 46.0481C30.0786 46.3001 30.0786 46.3001 30.0573 46.5784C30.3813 47.011 31.014 47.096 31.5235 47.1971C32.3306 47.2806 33.1103 47.2469 33.8789 46.9813C34.1506 46.9176 34.2833 46.9269 34.5475 47.0203C34.752 47.1847 34.9313 47.3444 35.1145 47.5285C35.1929 47.6062 35.1929 47.6062 35.2729 47.6854C36.9077 49.333 38.201 51.4375 38.7854 53.6539C38.8502 53.9145 38.8502 53.9145 38.9458 54.1618C39.3992 55.5554 39.349 57.0679 39.3127 58.5102C38.5257 58.2618 38.5257 58.2618 38.2131 57.9799C38.1036 57.7117 38.0269 57.4412 37.9485 57.1631C36.9304 53.8483 34.5016 51.4807 31.4318 49.8486C30.3954 49.3085 29.3504 48.7835 28.2807 48.3074C26.9311 47.7018 25.8766 47.0782 24.9255 45.9597C24.8786 45.9059 24.8316 45.8521 24.7832 45.7967C24.4805 45.4481 24.1964 45.0888 23.9175 44.7223C23.8431 44.6267 23.7686 44.5311 23.6942 44.4354C22.7725 43.2357 21.9801 41.9454 21.2314 40.6401C21.1879 40.5645 21.1445 40.4889 21.0997 40.411C21.0603 40.3413 21.021 40.2717 20.9805 40.1999C20.9458 40.1386 20.9112 40.0773 20.8755 40.0141C20.8018 39.8612 20.8018 39.8612 20.8018 39.6845C20.9005 39.6768 20.9991 39.6692 21.1007 39.6613C22.7104 39.5194 24.1267 39.0257 25.2001 37.8053C26.0102 36.7376 26.233 35.5643 26.3935 34.2831C26.5454 33.0906 26.7119 31.9543 27.2165 30.8461C27.2413 30.7909 27.2661 30.7358 27.2917 30.6789C27.8762 29.4015 28.7565 28.2655 29.8797 27.3825C30.153 27.1654 30.153 27.1654 30.2921 26.8643C30.2976 26.6753 30.2976 26.6753 30.2405 26.4269C29.9815 26.3345 29.8667 26.298 29.5991 26.3385C29.2554 26.5663 28.9747 26.8483 28.6827 27.134C28.6223 27.185 28.562 27.236 28.4998 27.2886C26.4585 29.0568 25.7093 31.7512 25.4313 34.2708C25.2698 35.6631 24.9248 36.9249 23.7736 37.8502C23.011 38.3811 22.1973 38.6558 21.2543 38.6515C21.1606 38.6536 21.1606 38.6536 21.0651 38.6558C20.6336 38.6562 20.3395 38.584 19.9771 38.3587C19.8224 38.1899 19.8224 38.1899 19.7022 37.9996C19.6566 37.9292 19.611 37.8588 19.564 37.7863C19.4742 37.6398 19.3849 37.4929 19.2962 37.3457C18.4644 35.971 17.5101 35.0827 16.0367 34.3814C16.0846 31.8442 17.1926 29.3255 18.8774 27.3991C18.9454 27.3212 19.0133 27.2432 19.0833 27.163C23.1921 22.6138 30.6791 21.5432 35.576 25.6048Z" fill="#B1804F"/>
<path d="M3.41066 27.9514C5.41183 28.4719 6.70251 30.1891 7.68758 31.8341C8.71138 33.5988 9.5967 35.4481 10.4942 37.2748C11.3378 39.0829 11.3378 39.0829 12.5544 40.6566C12.5709 40.8384 12.579 41.021 12.5831 41.2035C12.7576 43.9142 14.9232 46.2597 16.9101 47.9966C17.5888 48.5899 18.2321 49.2164 18.8774 49.843C18.9973 49.9591 19.1173 50.0752 19.2372 50.1912C19.4557 50.4026 19.6741 50.6142 19.8923 50.8259C19.9386 50.8707 19.985 50.9155 20.0328 50.9616C20.1457 51.0716 20.2568 51.1835 20.3675 51.2956C20.5154 51.455 20.5154 51.455 20.7231 51.474C20.9021 51.4625 21.0811 51.451 21.26 51.4394C21.3288 51.2342 21.3288 51.2342 21.3517 50.9975C21.2619 50.8268 21.2619 50.8268 21.1035 50.6806C21.0138 50.5891 21.0138 50.5891 20.9222 50.4958C20.8523 50.428 20.7823 50.3603 20.7102 50.2905C20.6324 50.2143 20.5546 50.1381 20.4745 50.0597C20.2478 49.8402 20.0198 49.6222 19.7907 49.4051C19.6368 49.2591 19.4834 49.1126 19.3301 48.9661C18.8946 48.5498 18.459 48.1338 18.0217 47.7193C17.7528 47.4642 17.4848 47.2083 17.2174 46.9518C17.1168 46.8556 17.0158 46.7597 16.9145 46.6642C16.1638 45.9562 15.5342 45.2013 14.937 44.3687C14.8811 44.291 14.8251 44.2132 14.7675 44.1331C14.0192 43.0587 13.5276 41.687 13.7457 40.3915C13.8868 40.1311 13.8868 40.1311 14.0206 39.9495C15.2932 40.1242 16.4497 41.2321 17.4112 41.9824C17.4744 42.0313 17.5375 42.0803 17.6025 42.1307C18.0296 42.4618 18.4539 42.796 18.8774 43.1314C18.9744 43.208 18.9744 43.208 19.0733 43.2861C20.3097 44.263 20.3097 44.263 20.8931 44.7471C22.9358 46.4381 25.1882 47.7291 27.5934 48.8801C27.6767 48.92 27.7599 48.9599 27.8456 49.0009C28.2645 49.2015 28.6839 49.401 29.1042 49.5989C31.9787 50.9611 34.51 52.6149 36.0138 55.4167C36.0682 55.5181 36.1227 55.6195 36.1788 55.724C37.5955 58.5052 38.3404 61.9567 38.2131 65.0506C37.9552 64.8101 37.7285 64.5613 37.5086 64.2882C34.3265 60.4219 29.4505 58.6377 24.7196 57.1926C24.4051 57.0963 24.0909 56.9992 23.7767 56.9021C23.2786 56.7484 22.7804 56.5951 22.2822 56.442C21.581 56.2266 20.8801 56.01 20.1796 55.7925C20.0024 55.7375 19.8252 55.6826 19.648 55.6277C15.7063 54.4024 15.7063 54.4024 14.2039 53.2071C14.1157 53.1371 14.1157 53.1371 14.0256 53.0656C12.5911 51.8061 11.9353 49.6203 11.2115 47.9411C10.8742 47.1586 10.5304 46.3791 10.1833 45.6006C9.643 44.3879 9.10594 43.174 8.57016 41.9595C6.47778 37.1949 6.47778 37.1949 4.32991 32.4535C4.30081 32.3905 4.2717 32.3275 4.24172 32.2626C3.96808 31.6706 3.69267 31.0795 3.41426 30.4897C3.3339 30.3192 3.25388 30.1486 3.17396 29.978C3.07741 29.7721 2.98016 29.5665 2.88205 29.3613C2.8191 29.2269 2.8191 29.2269 2.75488 29.0897C2.71814 29.0123 2.68141 28.9349 2.64355 28.8551C2.55949 28.6184 2.54253 28.4429 2.56588 28.1945C2.79645 27.8764 3.02484 27.8934 3.41066 27.9514Z" fill="#EAAF79"/>
<path d="M76.9759 28.0176C77.0676 28.106 77.0676 28.106 77.0907 28.4228C77.0848 28.8169 76.9615 29.1349 76.7887 29.488C76.7448 29.5818 76.7448 29.5818 76.7001 29.6775C76.6043 29.8816 76.5066 30.0847 76.4089 30.2879C76.3408 30.4324 76.2728 30.577 76.2049 30.7216C76.0355 31.0819 75.8648 31.4417 75.6935 31.8012C75.4757 32.2589 75.2603 32.7177 75.0458 33.177C74.9995 33.2762 74.9531 33.3754 74.9054 33.4777C74.1528 35.0968 73.4454 36.7354 72.7266 38.3686C72.2215 39.5154 71.7122 40.6605 71.2027 41.8055C70.644 43.0614 70.086 44.3176 69.5314 45.5752C69.4845 45.6817 69.4375 45.7881 69.3892 45.8978C69.1664 46.4029 68.9438 46.9082 68.7215 47.4135C68.303 48.3641 67.8802 49.3127 67.4502 50.2585C67.3878 50.3962 67.3878 50.3962 67.3241 50.5367C66.6501 52.0136 65.834 53.2145 64.3299 54.0024C64.2174 54.0653 64.2174 54.0653 64.1026 54.1295C61.5196 55.4837 58.3754 56.1553 55.5842 56.9999C51.9787 58.0734 51.9787 58.0734 48.5481 59.5745C48.3752 59.664 48.2012 59.751 48.0269 59.8378C46.566 60.5699 45.2377 61.4555 43.9862 62.4873C43.9392 62.526 43.8922 62.5647 43.8437 62.6046C43.1135 63.2118 42.4992 63.8666 41.9119 64.6036C41.6953 64.8736 41.6953 64.8736 41.512 65.0504C41.4285 63.243 41.7289 61.4153 42.1535 59.659C42.1702 59.5892 42.187 59.5195 42.2043 59.4476C43.0416 56.0322 44.6764 52.9943 47.835 51.0858C48.8028 50.5135 49.7934 49.9935 50.8135 49.5141C53.3088 48.3404 55.7686 47.1511 57.9152 45.4292C57.9937 45.3678 58.0721 45.3064 58.1529 45.2431C58.5569 44.9268 58.9571 44.6068 59.353 44.2811C59.8572 43.8662 60.3693 43.4643 60.8929 43.0724C61.2559 42.7997 61.6107 42.5191 61.9633 42.2341C62.5555 41.7564 63.1562 41.2976 63.7858 40.8664C63.8479 40.8235 63.91 40.7807 63.974 40.7366C64.4407 40.4223 64.9362 40.091 65.504 39.9936C65.7045 40.0378 65.7045 40.0378 65.8519 40.179C66.1576 40.6883 66.0304 41.4419 65.9257 42.0067C65.322 44.1246 63.753 45.7464 62.1689 47.2441C61.9575 47.4443 61.747 47.6453 61.5364 47.8462C61.1463 48.2184 60.7559 48.5902 60.364 48.9606C60.0894 49.2203 59.8158 49.481 59.543 49.7425C59.4393 49.8414 59.3352 49.94 59.2307 50.0381C59.0853 50.1747 58.9414 50.3126 58.7978 50.451C58.7156 50.5289 58.6334 50.6069 58.5488 50.6873C58.3519 50.9362 58.3313 51.0458 58.3734 51.3509C58.7101 51.4548 59.0304 51.4458 59.3814 51.4393C59.4158 51.3631 59.4158 51.3631 59.4508 51.2854C59.5811 51.0571 59.7305 50.904 59.9217 50.72C59.9951 50.6489 60.0686 50.5778 60.1442 50.5045C60.2635 50.3905 60.2635 50.3905 60.3852 50.2741C60.467 50.1952 60.5488 50.1163 60.6331 50.035C60.8064 49.8682 60.9798 49.7015 61.1536 49.5351C61.375 49.323 61.5959 49.1103 61.8166 48.8974C62.0284 48.6932 62.2406 48.4893 62.4527 48.2854C62.5315 48.2096 62.6103 48.1337 62.6914 48.0555C63.0719 47.6914 63.4546 47.3447 63.8717 47.0201C64.0985 46.7951 64.3035 46.5529 64.5132 46.313C64.5843 46.2356 64.6554 46.1581 64.7287 46.0783C65.9846 44.6831 67.1498 42.8426 67.1009 40.9451C67.1914 40.5707 67.3878 40.368 67.6383 40.0749C67.9239 39.7234 68.134 39.3376 68.3505 38.944C68.4002 38.8546 68.4499 38.7652 68.5011 38.6731C69.3258 37.1719 70.0848 35.6347 70.8287 34.095C71.9745 31.7242 73.3381 29.1046 75.9679 28.0176C76.3301 27.9128 76.6082 27.937 76.9759 28.0176Z" fill="#EAAF79"/>
<path d="M50.2176 0.265174C50.3394 0.318494 50.3394 0.318494 50.4635 0.372892C51.1161 0.687145 51.6279 1.09588 52.142 1.59093C52.2129 1.65827 52.2838 1.7256 52.3568 1.79497C53.8481 3.29488 54.5473 5.46145 54.6163 7.51265C54.6199 7.61621 54.6236 7.71978 54.6274 7.82648C54.6794 10.8132 53.9729 13.717 51.7755 15.9091C51.7205 15.9706 51.6656 16.0322 51.609 16.0955C50.5253 17.2605 48.7188 17.7682 47.1435 17.8684C45.5991 17.8816 44.3617 17.4432 43.2313 16.4329C42.2272 15.4477 41.6671 14.1394 41.3287 12.8157C41.2996 12.7049 41.2704 12.5942 41.2403 12.4801C40.5823 9.67815 41.1558 6.58776 42.52 4.06568C42.5745 3.96234 42.6289 3.85901 42.6851 3.75254C43.5696 2.16111 44.8176 0.984106 46.5521 0.265174C46.6209 0.235096 46.6896 0.205018 46.7604 0.174028C47.7599 -0.191267 49.2487 -0.169928 50.2176 0.265174Z" fill="#FEA99E"/>
<path d="M34.7852 2.81714C36.4819 4.06967 37.5061 5.92537 37.8163 7.95406C38.1098 10.5345 37.7457 13.1782 36.1054 15.2903C35.4399 16.0821 34.5604 16.6186 33.5048 16.7766C31.8671 16.8872 30.4296 16.2522 29.2039 15.243C27.3455 13.5991 26.065 11.2701 25.9221 8.81783C25.8301 6.62682 26.2622 4.21727 27.7491 2.48018C29.7461 0.465365 32.7424 1.39283 34.7852 2.81714Z" fill="#FEA99E"/>
<path d="M65.4897 9.74386C66.7703 10.6681 67.3506 11.9565 67.6883 13.428C67.9158 15.344 67.5839 17.2324 66.3416 18.7856C66.2826 18.8572 66.2235 18.9287 66.1627 19.0024C66.1206 19.0576 66.0786 19.1127 66.0352 19.1695C64.9979 20.4594 63.2312 21.258 61.5808 21.4772C60.2693 21.5928 58.9904 21.4787 57.9152 20.6817C56.3762 19.3696 56.0425 16.939 55.879 15.058C55.7962 13.6071 56.0629 12.2862 57.0397 11.138C58.0702 10.0876 59.2464 9.56701 60.6644 9.19181C60.7621 9.16586 60.7621 9.16586 60.8617 9.13938C62.4105 8.76608 64.1384 8.8997 65.4897 9.74386Z" fill="#FEA99E"/>
<path d="M19.7022 9.36859C19.8085 9.4006 19.9148 9.43262 20.0243 9.4656C21.4255 9.93796 22.6066 10.8126 23.3212 12.0771C24.2697 14.1129 23.8425 16.6918 23.0928 18.7373C22.6694 19.7475 22.1211 20.634 21.0767 21.1236C19.6075 21.691 17.9395 21.6274 16.4838 21.046C15.7623 20.7364 15.08 20.3844 14.4788 19.8863C14.4193 19.8414 14.3597 19.7965 14.2984 19.7502C13.0419 18.7668 12.2056 17.1851 12.0046 15.6438C11.8534 13.8822 12.081 12.1522 13.2116 10.7047C14.9035 8.81974 17.3424 8.64803 19.7022 9.36859Z" fill="#FEA99E"/>
<path d="M50.2176 0.265174C50.3394 0.318494 50.3394 0.318494 50.4635 0.372892C51.1161 0.687145 51.6279 1.09588 52.142 1.59093C52.2129 1.65827 52.2838 1.7256 52.3568 1.79497C53.8481 3.29488 54.5473 5.46145 54.6163 7.51265C54.6199 7.61621 54.6236 7.71978 54.6274 7.82648C54.6794 10.8132 53.9729 13.717 51.7755 15.9091C51.7205 15.9706 51.6656 16.0322 51.609 16.0955C50.5253 17.2605 48.7188 17.7682 47.1435 17.8684C45.5991 17.8816 44.3617 17.4432 43.2313 16.4329C42.2272 15.4477 41.6671 14.1394 41.3287 12.8157C41.2996 12.7049 41.2704 12.5942 41.2403 12.4801C40.5823 9.67815 41.1558 6.58776 42.52 4.06568C42.5745 3.96234 42.6289 3.85901 42.6851 3.75254C43.5696 2.16111 44.8176 0.984106 46.5521 0.265174C46.6209 0.235096 46.6896 0.205018 46.7604 0.174028C47.7599 -0.191267 49.2487 -0.169928 50.2176 0.265174ZM44.4444 3.09346C43.351 4.41004 42.7268 5.97106 42.3368 7.60103C42.3142 7.69161 42.2916 7.78218 42.2684 7.87551C41.7879 10.2437 42.1237 13.0763 43.5281 15.1137C44.2234 16.0309 45.0448 16.5248 46.1856 16.7929C47.6965 16.9354 49.3534 16.5248 50.5619 15.6106C52.1116 14.3078 52.91 12.5964 53.2531 10.6779C53.2686 10.5943 53.2841 10.5108 53.3 10.4247C53.343 10.1907 53.3843 9.95656 53.425 9.72224C53.443 9.61993 53.4611 9.51762 53.4797 9.41221C53.7417 7.21934 53.3929 4.72944 51.9349 2.95272C51.458 2.40378 50.948 1.87616 50.3093 1.50255C50.2396 1.45982 50.1699 1.4171 50.0981 1.37308C48.0391 0.283601 45.7894 1.56307 44.4444 3.09346Z" fill="#51270E"/>
<path d="M34.7852 2.81714C36.4819 4.06967 37.5061 5.92537 37.8163 7.95406C38.1098 10.5345 37.7457 13.1782 36.1054 15.2903C35.4399 16.0821 34.5604 16.6186 33.5048 16.7766C31.8671 16.8872 30.4296 16.2522 29.2039 15.243C27.3455 13.5991 26.065 11.2701 25.9221 8.81783C25.8301 6.62682 26.2622 4.21727 27.7491 2.48018C29.7461 0.465365 32.7424 1.39283 34.7852 2.81714ZM28.5911 3.18172C28.3455 3.49047 28.1441 3.81337 27.9496 4.15395C27.9081 4.22447 27.8667 4.29499 27.824 4.36766C27.0904 5.7541 26.9337 7.30863 27.0332 8.83829C27.0398 8.94801 27.0465 9.05772 27.0533 9.17076C27.2745 11.2585 28.4984 13.2916 30.1546 14.6274C31.0883 15.3014 32.1583 15.8814 33.3562 15.7322C34.2496 15.5471 34.9007 15.0743 35.4439 14.3723C36.3746 12.9502 36.7832 11.3746 36.7755 9.71108C36.775 9.59755 36.7746 9.48403 36.7741 9.36706C36.7582 8.12257 36.5865 7.05169 36.0137 5.92162C35.9743 5.84005 35.9348 5.75847 35.8942 5.67442C35.0546 4.05497 33.4514 3.03555 31.7068 2.47465C30.5801 2.20902 29.4271 2.37206 28.5911 3.18172Z" fill="#51280E"/>
<path d="M19.7022 9.36859C19.8085 9.4006 19.9148 9.43262 20.0243 9.4656C21.4255 9.93796 22.6066 10.8126 23.3212 12.0771C24.2697 14.1129 23.8425 16.6918 23.0928 18.7373C22.6694 19.7475 22.1211 20.634 21.0767 21.1236C19.6075 21.691 17.9395 21.6274 16.4838 21.046C15.7623 20.7364 15.08 20.3844 14.4788 19.8863C14.4193 19.8414 14.3597 19.7965 14.2984 19.7502C13.0419 18.7668 12.2056 17.1851 12.0046 15.6438C11.8534 13.8822 12.081 12.1522 13.2116 10.7047C14.9035 8.81974 17.3424 8.64803 19.7022 9.36859ZM14.1123 11.313C13.1013 12.6343 12.9767 14.0659 13.1304 15.6476C13.3941 17.1615 14.2854 18.4548 15.5573 19.3598C16.0604 19.678 16.5742 19.9449 17.1363 20.1514C17.2023 20.1778 17.2684 20.2043 17.3364 20.2315C18.4402 20.6193 19.7396 20.5169 20.8018 20.063C21.544 19.6804 21.8965 18.8308 22.142 18.0965C22.6727 16.3963 23.1988 14.253 22.3332 12.5884C21.5773 11.2823 20.3413 10.6828 18.9118 10.2445C17.1535 9.78714 15.3607 9.93984 14.1123 11.313Z" fill="#51280E"/>
<path d="M65.4897 9.74386C66.7703 10.6681 67.3506 11.9565 67.6883 13.428C67.9158 15.344 67.5839 17.2324 66.3416 18.7856C66.2826 18.8572 66.2235 18.9287 66.1627 19.0024C66.1206 19.0576 66.0786 19.1127 66.0352 19.1695C64.9979 20.4594 63.2312 21.258 61.5808 21.4772C60.2693 21.5928 58.9904 21.4787 57.9152 20.6817C56.3762 19.3696 56.0425 16.939 55.879 15.058C55.7962 13.6071 56.0629 12.2862 57.0397 11.138C58.0702 10.0876 59.2464 9.56701 60.6644 9.19181C60.7621 9.16586 60.7621 9.16586 60.8617 9.13938C62.4105 8.76608 64.1384 8.8997 65.4897 9.74386ZM57.8492 11.8776C56.9633 12.9545 56.8926 14.1948 57.0203 15.5117C57.0821 16.0019 57.1709 16.486 57.2738 16.9696C57.2865 17.0298 57.2993 17.0899 57.3124 17.1519C57.5241 18.1061 57.8788 19.3678 58.7482 19.965C58.806 19.9973 58.8637 20.0297 58.9233 20.063C58.9857 20.099 59.0482 20.135 59.1126 20.1721C60.0147 20.602 61.2852 20.5442 62.2222 20.2398C62.3601 20.196 62.3601 20.196 62.5007 20.1514C64.0152 19.6314 65.2479 18.7249 65.9794 17.3231C66.0139 17.2589 66.0484 17.1946 66.0839 17.1284C66.7699 15.7558 66.8627 14.081 66.3459 12.6388C65.9353 11.6284 65.3251 10.7899 64.2801 10.3353C64.2058 10.3079 64.1315 10.2806 64.055 10.2524C63.9749 10.2203 63.8948 10.1882 63.8123 10.1551C61.7612 9.62475 59.2595 10.3739 57.8492 11.8776Z" fill="#51270E"/>
<path d="M6.13974 28.2827C7.19081 28.338 7.8995 28.896 8.61397 29.6085C9.63172 30.7237 10.3344 32.048 11.0417 33.3582C11.0885 33.445 11.1354 33.5318 11.1838 33.6213C11.7117 34.6018 12.2267 35.5886 12.7389 36.5768C12.8468 36.7847 12.9548 36.9926 13.0631 37.2003C13.2218 37.5048 13.38 37.8096 13.5381 38.1144C13.5867 38.2076 13.6354 38.3009 13.6856 38.3969C13.7297 38.4824 13.7739 38.5678 13.8193 38.6558C13.8584 38.731 13.8974 38.8061 13.9376 38.8835C14.0206 39.0655 14.0206 39.0655 14.0206 39.2423C13.7762 39.3012 13.5319 39.3602 13.2875 39.4191C13.219 39.4356 13.1505 39.4521 13.0799 39.4691C13.0274 39.4818 12.975 39.4944 12.921 39.5075C11.9527 37.9165 11.1216 36.252 10.3035 34.5856C8.90243 31.6352 8.90243 31.6352 6.87284 29.0782C6.82548 29.0323 6.77811 28.9863 6.7293 28.939C6.68973 28.9011 6.65016 28.8632 6.60938 28.8241C6.43201 28.653 6.28387 28.4803 6.13974 28.2827Z" fill="#E7AC77"/>
<path d="M73.5853 28.2829C73.3974 28.5269 73.2235 28.7213 72.9725 28.9071C70.8784 30.5592 69.7128 33.8703 68.5906 36.1661C68.0338 37.3034 67.4672 38.4241 66.8041 39.5076C66.411 39.4201 66.0179 39.3326 65.6128 39.2425C65.6499 39.1711 65.687 39.0997 65.7253 39.0262C66.0619 38.378 66.3972 37.7292 66.7311 37.0797C66.965 36.6249 67.1994 36.1704 67.4339 35.7159C67.5868 35.4196 67.7395 35.1233 67.8916 34.8267C69.6307 31.4389 69.6307 31.4389 70.5785 30.2605C70.6214 30.205 70.6643 30.1495 70.7086 30.0924C71.1276 29.5612 71.5915 29.0613 72.1764 28.6972C72.2418 28.6556 72.3073 28.614 72.3747 28.5712C72.791 28.3421 73.1045 28.2613 73.5853 28.2829Z" fill="#E8AD77"/>
<path d="M63.8717 35.1768C63.9624 35.2205 63.9624 35.2205 64.055 35.2651C64.0214 35.3321 63.9878 35.3991 63.9532 35.4682C63.8236 35.7269 63.6939 35.9857 63.5643 36.2444C63.4763 36.4202 63.3881 36.5959 63.3 36.7717C63.0282 37.3139 62.7574 37.8565 62.4914 38.4014C61.4894 40.453 60.4868 42.3188 58.5958 43.7251C58.0678 44.1198 57.5769 44.546 57.0905 44.9874C57.03 44.9582 56.9695 44.929 56.9072 44.899C56.9617 44.8281 57.0161 44.7572 57.0722 44.6842C58.3663 42.9807 59.399 41.1212 60.4493 39.2721C62.4396 35.781 62.4396 35.781 63.8717 35.1768Z" fill="#E8AD77"/>
<path d="M15.6701 35.1768C16.8209 35.4694 17.702 36.6672 18.2823 37.6107C18.6748 38.2667 19.0509 38.9313 19.4273 39.5959C20.9354 42.2888 20.9354 42.2888 22.7262 44.8106C22.3795 44.8106 22.3321 44.7317 22.0848 44.5068C21.7709 44.2287 21.4526 43.9605 21.1226 43.7003C20.995 43.5991 20.995 43.5991 20.8648 43.4959C20.6285 43.3108 20.6285 43.3108 20.4066 43.17C18.1793 41.6969 16.4847 37.5338 15.6701 35.1768Z" fill="#E8AD77"/>
<path d="M55.1031 23.3058C55.804 23.8875 56.0519 24.7086 56.1354 25.5734C56.1476 25.7418 56.1586 25.9103 56.1684 26.0788C56.1737 26.1609 56.1789 26.243 56.1844 26.3276C56.189 26.4439 56.189 26.4439 56.1938 26.5625C56.1967 26.6321 56.1997 26.7018 56.2027 26.7735C56.1741 26.9571 56.1741 26.9571 56.0565 27.1161C55.8992 27.2223 55.8992 27.2223 55.5613 27.1947C55.4611 27.1746 55.3609 27.1546 55.2577 27.1339C55.1227 26.5728 55.0092 26.0097 54.9122 25.4413C54.8396 25.0454 54.7412 24.5145 54.433 24.2172C53.1517 24.2698 52.0274 25.2705 51.134 26.0733C51.089 26.1234 51.044 26.1736 50.9976 26.2252C50.9291 26.2813 50.9291 26.2813 50.8591 26.3385C50.5212 26.3108 50.5212 26.3108 50.2176 26.2501C50.1407 26.0127 50.1029 25.8741 50.126 25.6314C50.7688 24.4785 52.4975 23.5915 53.7142 23.137C54.2171 23.0044 54.6428 23.0796 55.1031 23.3058Z" fill="#542C11"/>
<path d="M68.7285 30.8459C68.7285 31.2015 68.5564 31.4226 68.3749 31.7208C67.8903 32.5398 67.4542 33.38 67.0203 34.2246C66.9485 34.3641 66.8767 34.5036 66.8049 34.6431C66.5072 35.222 66.2102 35.8013 65.9138 36.3809C65.7304 36.7394 65.5462 37.0977 65.3616 37.4557C65.2922 37.5907 65.2231 37.7258 65.1543 37.861C64.2361 39.6649 64.2361 39.6649 63.4422 40.1263C63.3568 40.1773 63.2713 40.2283 63.1834 40.2809C62.9553 40.3914 62.9553 40.3914 62.6804 40.3914C62.7047 40.3455 62.729 40.2995 62.754 40.2522C63.2843 39.2466 63.7951 38.2344 64.2841 37.2096C66.7934 31.9658 66.7934 31.9658 68.7285 30.8459Z" fill="#E7AC77"/>
<path d="M10.9049 30.8459C13.3536 31.9755 14.5148 35.296 15.607 37.5145C15.7563 37.8173 15.9067 38.1196 16.0574 38.4218C16.1479 38.6032 16.2383 38.7847 16.3288 38.9662C16.3696 39.0481 16.4104 39.1299 16.4525 39.2143C16.66 39.6325 16.8592 40.052 17.0447 40.4798C16.9958 40.456 16.9468 40.4322 16.8964 40.4077C16.7375 40.3315 16.5765 40.2591 16.4145 40.1892C15.3872 39.6786 15.0326 38.9237 14.5544 37.9432C14.4718 37.7804 14.389 37.6177 14.3059 37.4552C14.0888 37.029 13.8758 36.6012 13.6636 36.1728C13.4064 35.655 13.1451 35.1392 12.8838 34.6233C12.6803 34.2214 12.4776 33.8191 12.2774 33.4157C11.9005 32.6602 11.5093 31.9342 11.0347 31.2312C10.9049 31.0227 10.9049 31.0227 10.9049 30.8459Z" fill="#E7AC77"/>
<path d="M46.5457 33.4969C47.1316 33.8009 47.5104 34.2213 47.7434 34.8233C47.7964 35.1272 47.8173 35.406 47.7434 35.7072C47.5758 35.9133 47.5107 35.9652 47.2394 36.011C47.0103 35.9723 47.0103 35.9723 46.8557 35.8398C46.7443 35.6351 46.7022 35.4883 46.6552 35.2653C46.589 34.9747 46.5572 34.9165 46.323 34.6963C45.9712 34.4842 45.7806 34.4309 45.3608 34.4698C45.0034 34.6554 44.7612 34.8015 44.6277 35.1769C44.5824 35.3355 44.5824 35.3355 44.5361 35.4973C44.4444 35.7956 44.4444 35.7956 44.2612 35.9723C44.0051 36.004 43.8636 36.0164 43.6537 35.8639C43.4478 35.607 43.4796 35.3703 43.4905 35.0557C43.5869 34.4593 44.002 34.0658 44.4677 33.6944C45.077 33.2816 45.8466 33.2685 46.5457 33.4969Z" fill="#542B11"/>
<path d="M34.937 33.492C35.463 33.7138 35.8788 34.2001 36.1244 34.6907C36.1971 34.9118 36.2244 35.0891 36.2257 35.3204C36.2272 35.3872 36.2287 35.4539 36.2303 35.5227C36.1885 35.7542 36.1137 35.8311 35.9221 35.9722C35.6711 36.0086 35.5292 36.0096 35.3093 35.8839C35.1574 35.6607 35.1247 35.4349 35.0666 35.1771C34.97 34.8959 34.7797 34.7428 34.5475 34.5581C34.259 34.4189 34.0417 34.439 33.7228 34.4697C33.2843 34.7137 33.1539 34.9021 33.0183 35.3701C33.001 35.4461 32.9836 35.5221 32.9657 35.6004C32.8981 35.7955 32.8981 35.7955 32.6231 35.9722C32.3187 35.9436 32.2009 35.9185 31.9817 35.7071C31.8783 35.1518 31.9791 34.685 32.2838 34.2087C32.957 33.4284 33.9393 33.2064 34.937 33.492Z" fill="#52290E"/>
<path d="M12.1879 40.3914C12.3686 40.4894 12.3686 40.4894 12.5544 40.6565C12.5941 40.9065 12.5941 40.9065 12.5945 41.2089C12.7239 43.797 14.7909 46.1138 16.6706 47.7932C16.8415 47.9421 17.0128 48.0906 17.1846 48.2385C17.93 48.8925 18.6267 49.6 19.3356 50.2903C19.2449 50.3341 19.2449 50.3341 19.1523 50.3787C18.2632 49.7655 17.4063 49.1318 16.5865 48.4343C16.5391 48.3942 16.4917 48.3541 16.4429 48.3128C14.5412 46.6946 12.3925 44.3312 12.0046 41.8055C11.9941 41.6271 11.9886 41.4484 11.9874 41.2697C11.9861 41.1793 11.9848 41.089 11.9835 40.9959C12.0044 40.7466 12.0547 40.603 12.1879 40.3914Z" fill="#D9965B"/>
<path d="M67.4456 40.3914C67.5363 40.4351 67.5363 40.4351 67.6289 40.4797C67.6993 41.6371 67.6008 42.5258 67.079 43.5732C67.0525 43.6283 67.026 43.6833 66.9988 43.7401C66.4047 44.9597 65.552 46.0263 64.6023 47.0088C64.4299 47.1882 64.2679 47.3729 64.1065 47.5615C64.029 47.6453 63.9515 47.7292 63.8717 47.8156C63.8112 47.8156 63.7507 47.8156 63.6884 47.8156C63.6884 47.8739 63.6884 47.9323 63.6884 47.9924C63.5667 48.1139 63.5667 48.1139 63.3906 48.2575C63.3231 48.3127 63.2557 48.3678 63.1862 48.4246C63.0719 48.5169 63.0719 48.5169 62.9553 48.6111C62.8744 48.678 62.7935 48.745 62.7101 48.8141C62.1919 49.2388 61.6622 49.6445 61.1168 50.0362C61.0579 50.0792 60.9989 50.1221 60.9382 50.1663C60.5137 50.4671 60.5137 50.4671 60.2062 50.4671C60.6395 50.0469 61.0732 49.6271 61.5071 49.2075C61.6546 49.0648 61.8019 48.9221 61.9492 48.7793C62.1615 48.5735 62.374 48.368 62.5866 48.1626C62.6519 48.0991 62.7172 48.0357 62.7845 47.9703C63.1334 47.6337 63.4887 47.3201 63.8717 47.0201C64.0985 46.7951 64.3034 46.5529 64.5132 46.3131C64.5843 46.2356 64.6554 46.1581 64.7287 46.0783C66.0229 44.6407 67.0948 42.8339 67.1367 40.8933C67.1746 40.6289 67.23 40.5513 67.4456 40.3914Z" fill="#D9965B"/>
<path d="M63.1386 36.6792C63.2293 36.7229 63.2293 36.7229 63.3219 36.7676C63.0935 37.2299 62.864 37.6916 62.6334 38.1529C62.5555 38.3091 62.4779 38.4654 62.4007 38.6218C61.3152 40.8195 60.1351 42.6002 58.1354 44.11C57.7747 44.3889 57.4326 44.6876 57.0905 44.9873C57.03 44.9581 56.9695 44.9289 56.9072 44.8989C57.0208 44.7399 57.1356 44.5817 57.2509 44.4238C57.3147 44.3356 57.3784 44.2475 57.4442 44.1566C57.6405 43.9265 57.7404 43.876 58.0069 43.7499C58.1894 43.5746 58.3625 43.3991 58.5338 43.2141C58.5827 43.1619 58.6316 43.1097 58.682 43.0559C58.7798 42.9514 58.8773 42.8467 58.9746 42.7419C59.0823 42.6268 59.1922 42.5136 59.3027 42.401C60.4837 41.183 61.3118 39.7105 62.1576 38.2691C62.3706 37.9091 62.5899 37.5531 62.8122 37.1985C62.8632 37.1169 62.8632 37.1169 62.9153 37.0337C62.9896 36.9154 63.0641 36.7973 63.1386 36.6792Z" fill="#D9965B"/>
<path d="M16.4032 36.6792C16.4637 36.6792 16.5242 36.6792 16.5865 36.6792C16.6228 36.7405 16.6592 36.8018 16.6967 36.8649C18.5116 39.9824 18.5116 39.9824 20.8018 42.7777C20.9721 42.9635 21.1405 43.1506 21.3083 43.3384C21.5654 43.6279 21.5654 43.6279 21.8972 43.8238C22.1661 43.9713 22.2697 44.1707 22.4284 44.4238C22.4846 44.5125 22.5409 44.6011 22.5988 44.6924C22.6619 44.7946 22.6619 44.7946 22.7262 44.8989C22.3465 44.7486 22.0624 44.4887 21.7583 44.2305C21.6438 44.1344 21.5293 44.0384 21.4147 43.9426C21.3578 43.895 21.301 43.8475 21.2425 43.7985C20.9305 43.5406 20.6097 43.2934 20.2889 43.0459C18.888 41.9013 18.0952 40.1308 17.2852 38.5795C17.2394 38.4919 17.1936 38.4044 17.1464 38.3142C16.87 37.7787 16.6234 37.2385 16.4032 36.6792Z" fill="#DA975C"/>
<path d="M71.6609 30.1389C71.7517 30.1827 71.7517 30.1827 71.8442 30.2273C71.8022 30.293 71.8022 30.293 71.7593 30.3601C70.5653 32.2342 69.5623 34.1782 68.5906 36.1661C68.0338 37.3033 67.4672 38.424 66.8041 39.5076C66.411 39.4201 66.0179 39.3326 65.6128 39.2425C65.7035 39.0383 65.7943 38.8341 65.8877 38.6238C65.918 38.6821 65.9482 38.7404 65.9794 38.8005C66.257 38.8587 66.257 38.8587 66.5292 38.8889C66.5663 38.7935 66.5663 38.7935 66.6042 38.6962C66.712 38.4482 66.8368 38.227 66.9788 37.9958C67.0314 37.9097 67.0839 37.8237 67.1381 37.735C67.2222 37.598 67.2222 37.598 67.3081 37.4582C68.0745 36.1999 68.8064 34.9274 69.5192 33.6402C70.9261 31.1001 70.9261 31.1001 71.6609 30.1389Z" fill="#D9965B"/>
<path d="M7.9725 30.3157C8.34081 30.4341 8.44389 30.6563 8.63688 30.962C8.69556 31.0538 8.69556 31.0538 8.75543 31.1474C9.45351 32.26 10.0636 33.4252 10.6927 34.5751C11.3314 35.74 12.0061 36.8734 12.7352 37.9875C12.7952 38.0797 12.8552 38.1718 12.917 38.2668C12.9709 38.3486 13.0247 38.4305 13.0802 38.5148C13.1959 38.7121 13.1959 38.7121 13.1959 38.8889C13.5134 38.8014 13.5134 38.8014 13.8373 38.7121C13.8978 38.8871 13.9583 39.0621 14.0206 39.2424C13.7762 39.3014 13.5319 39.3603 13.2875 39.4192C13.219 39.4357 13.1505 39.4522 13.0799 39.4693C13.0274 39.4819 12.975 39.4946 12.921 39.5076C11.9527 37.9166 11.1214 36.2522 10.3035 34.5857C9.94536 33.8567 9.57187 33.1364 9.18671 32.4203C9.11538 32.2873 9.11538 32.2873 9.04261 32.1516C8.70496 31.5285 8.34454 30.9202 7.9725 30.3157Z" fill="#D9965B"/>
<path d="M38.5796 38.4469C38.8717 38.5814 39.1086 38.7343 39.3127 38.9772C39.3439 39.1777 39.3439 39.1777 39.3396 39.4091C39.3387 39.492 39.3378 39.5749 39.3369 39.6603C39.3346 39.7466 39.3323 39.8329 39.3299 39.9218C39.328 40.0528 39.328 40.0528 39.3261 40.1864C39.3229 40.4021 39.3184 40.6176 39.3127 40.8333C38.6163 40.6381 37.8963 40.2347 37.5086 39.6235C37.3242 39.1747 37.3242 39.1747 37.3883 38.8888C37.7551 38.4643 38.0122 38.4098 38.5796 38.4469Z" fill="#FBA79C"/>
<path d="M41.7869 38.4471C42.0618 38.5796 42.0618 38.5796 42.2451 38.8006C42.3068 39.2104 42.2919 39.4096 42.1134 39.7839C41.8025 40.1203 41.4512 40.3362 41.0538 40.5683C40.965 40.623 40.8762 40.6776 40.7846 40.734C40.5956 40.8334 40.5956 40.8334 40.4124 40.8334C40.3936 40.5352 40.3823 40.2371 40.3723 39.9385C40.3669 39.8545 40.3615 39.7704 40.356 39.6837C40.3406 39.0731 40.3406 39.0731 40.5447 38.8009C40.958 38.4418 41.2345 38.3611 41.7869 38.4471Z" fill="#FCA89C"/>
<path d="M11.9129 32.6135C11.9734 32.6135 12.0339 32.6135 12.0962 32.6135C12.2144 32.769 12.2144 32.769 12.3496 32.9905C12.4004 33.0735 12.4511 33.1565 12.5033 33.242C12.5853 33.3793 12.5853 33.3793 12.6689 33.5195C12.7257 33.614 12.7824 33.7085 12.8408 33.8059C13.5929 35.0758 14.314 36.3812 14.8905 37.7343C15.266 38.6145 15.5458 39.2649 16.4948 39.6842C16.5553 39.6842 16.6158 39.6842 16.6781 39.6842C16.7991 39.9467 16.92 40.2092 17.0447 40.4797C16.9237 40.4214 16.8027 40.363 16.6781 40.3029C16.5907 40.2644 16.5033 40.226 16.4133 40.1863C15.4137 39.6838 15.0581 38.9802 14.5887 38.0219C14.5106 37.8684 14.4321 37.715 14.3534 37.5618C14.1487 37.1615 13.9481 36.7593 13.7483 36.3567C13.5431 35.9452 13.3339 35.5356 13.1252 35.1257C12.8221 34.5293 12.5204 33.9322 12.2221 33.3336C12.1748 33.239 12.1748 33.239 12.1265 33.1425C11.9129 32.7123 11.9129 32.7123 11.9129 32.6135Z" fill="#D9965B"/>
<path d="M67.5372 32.7903C67.5977 32.8194 67.6582 32.8486 67.7205 32.8787C67.3127 33.6735 66.9041 34.468 66.4944 35.262C66.3042 35.6308 66.1143 35.9997 65.925 36.3689C65.742 36.7256 65.5584 37.0821 65.3742 37.4382C65.3043 37.5737 65.2347 37.7093 65.1653 37.845C64.2341 39.6659 64.2341 39.6659 63.4422 40.1261C63.3568 40.1772 63.2713 40.2282 63.1834 40.2808C62.9553 40.3913 62.9553 40.3913 62.6804 40.3913C62.9695 39.7216 62.9695 39.7216 63.2532 39.5848C63.3363 39.5593 63.4195 39.5337 63.5052 39.5075C64.241 39.1332 64.4913 38.5636 64.8053 37.8503C64.8815 37.6838 64.9586 37.5178 65.0357 37.3518C65.0884 37.2381 65.141 37.1244 65.1933 37.0105C65.8667 35.5474 66.6135 34.1216 67.5372 32.7903Z" fill="#D7955B"/>
<path d="M30.3322 50.3789C30.7578 50.4288 31.0789 50.6077 31.4376 50.8208C31.498 50.8564 31.5584 50.8919 31.6206 50.9286C33.376 51.9781 35.4598 53.6142 36.0789 55.6288C36.0876 55.6755 36.0964 55.7222 36.1054 55.7703C35.8234 55.5123 35.5984 55.2407 35.3723 54.9362C34.897 54.318 34.3665 53.7618 33.8144 53.2072C33.7425 53.1342 33.6706 53.0611 33.5964 52.9859C32.6979 52.0945 31.6543 51.3042 30.5745 50.6265C30.4946 50.5739 30.4146 50.5214 30.3322 50.4673C30.3322 50.4381 30.3322 50.409 30.3322 50.3789Z" fill="#F5BA86"/>
<path d="M49.118 50.6439C49.003 50.7196 49.003 50.7196 48.8857 50.7969C47.1356 51.9656 45.5447 53.3606 44.268 55.0072C44.0779 55.2399 44.0779 55.2399 43.8946 55.3282C44.0983 53.987 45.7258 52.5523 46.7892 51.7749C47.1303 51.534 47.4807 51.3083 47.8351 51.0858C47.9669 51.0014 47.9669 51.0014 48.1014 50.9153C48.7558 50.5124 48.7558 50.5124 49.118 50.6439Z" fill="#F4BA86"/>
<path d="M14.1122 40.303C15.2991 40.2329 16.2634 41.0667 17.1546 41.7351C17.209 41.7875 17.2635 41.8399 17.3196 41.8939C17.3196 41.9814 17.3196 42.0689 17.3196 42.159C16.8809 42.0059 16.4831 41.7919 16.0767 41.5735C16.0042 41.5345 15.9316 41.4956 15.8568 41.4554C15.2567 41.1297 14.6636 40.7907 14.1122 40.3914C14.1122 40.3622 14.1122 40.333 14.1122 40.303Z" fill="#F4B984"/>
<path d="M65.5212 40.3031C65.5212 40.3614 65.5212 40.4198 65.5212 40.4799C65.3704 40.5875 65.3704 40.5875 65.1589 40.7074C65.0818 40.7516 65.0046 40.7957 64.9251 40.8413C64.8421 40.8879 64.7591 40.9345 64.6735 40.9825C64.5485 41.0536 64.5485 41.0536 64.4209 41.1261C64.2539 41.2208 64.0868 41.3153 63.9196 41.4095C63.7214 41.5218 63.5245 41.6357 63.3283 41.7511C63.2317 41.8073 63.1351 41.8636 63.0355 41.9216C62.9521 41.9705 62.8687 42.0194 62.7828 42.0697C62.7188 42.0992 62.6547 42.1287 62.5888 42.1592C62.5283 42.13 62.4678 42.1008 62.4055 42.0708C62.4465 42.0376 62.4875 42.0045 62.5297 41.9703C62.7819 41.7644 63.0257 41.5621 63.2531 41.3306C63.9503 40.6887 64.5359 40.2751 65.5212 40.3031Z" fill="#F5BA85"/>
<path d="M3.75717 28.1943C4.43111 28.2762 5.01253 28.5316 5.44277 29.0576C5.70888 29.4303 5.94387 29.816 6.13976 30.2272C6.10952 30.2855 6.07928 30.3438 6.04812 30.4039C5.98492 30.3292 5.92173 30.2545 5.85661 30.1774C5.01262 29.1822 5.01262 29.1822 3.96264 28.4022C3.89484 28.3628 3.82703 28.3233 3.75717 28.2827C3.75717 28.2536 3.75717 28.2244 3.75717 28.1943Z" fill="#F5BA86"/>
<path d="M75.9679 28.2828C75.9037 28.3257 75.8394 28.3685 75.7732 28.4126C74.9335 28.9848 74.2678 29.5924 73.677 30.404C73.6467 30.3457 73.6165 30.2874 73.5853 30.2273C73.7103 30.0098 73.7103 30.0098 73.8889 29.7522C74.1219 29.4221 74.1219 29.4221 74.3081 29.0676C74.4585 28.8227 74.664 28.7219 74.9141 28.5756C75.0039 28.5224 75.0936 28.4692 75.1861 28.4144C75.5114 28.2299 75.6072 28.1784 75.9679 28.2828Z" fill="#F6BB87"/>
<path d="M16.5865 35.7954C16.9798 35.9413 17.2169 36.2141 17.5029 36.5025C17.4726 36.5608 17.4424 36.6191 17.4112 36.6792C17.2732 36.5657 17.1359 36.4514 16.9989 36.3368C16.9223 36.2732 16.8458 36.2096 16.7669 36.1441C16.7074 36.0874 16.6478 36.0306 16.5865 35.9722C16.5865 35.9138 16.5865 35.8555 16.5865 35.7954Z" fill="#EEB481"/>
<path d="M62.9553 35.7954C63.046 35.8246 63.1368 35.8537 63.2302 35.8838C62.9127 36.1463 62.9127 36.1463 62.5888 36.4141C62.5888 36.1489 62.5888 36.1489 62.7721 35.9556C62.8325 35.9027 62.893 35.8499 62.9553 35.7954Z" fill="#F6BB86"/>
</g>
<defs>
<clipPath id="clip0_2345_212">
<rect width="80" height="70" fill="white"/>
</clipPath>
</defs>
</svg>
