<svg width="403" height="64" viewBox="0 0 403 64" fill="none" xmlns="http://www.w3.org/2000/svg">
<path d="M69.2459 9.53406C69.8105 9.53932 69.8105 9.53932 70.3866 9.54468C80.1332 9.6926 80.1332 9.6926 82.842 12.085C84.5798 13.9412 84.7929 15.315 84.7594 17.8059C84.6322 19.4046 84.0289 20.2282 82.9023 21.3399C80.346 23.2583 77.5791 23.1284 74.5134 23.1542C71.8265 23.1834 71.8265 23.1834 69.5805 24.5438C69.5578 25.0676 69.5541 25.5923 69.5608 26.1166C69.5636 26.4021 69.5665 26.6877 69.5694 26.9819C69.573 27.2025 69.5767 27.4232 69.5805 27.6506C69.8567 27.6535 70.1329 27.6564 70.4175 27.6594C71.4493 27.6731 72.4806 27.6923 73.5122 27.715C73.9573 27.7238 74.4026 27.7304 74.8478 27.7348C75.4905 27.7415 76.1326 27.756 76.7751 27.7719C77.161 27.7784 77.5468 27.7849 77.9443 27.7916C79.225 27.9925 79.9097 28.4079 80.9148 29.204C81.8531 30.5928 81.7357 31.9252 81.5445 33.5535C80.853 34.9687 80.1556 35.712 78.7109 36.3496C77.1813 36.522 75.643 36.5002 74.1051 36.5134C71.8191 36.5019 71.8191 36.5019 69.8953 37.5923C69.7116 38.6928 69.7116 38.6928 69.8953 39.7671C70.7871 40.647 71.3856 40.4675 72.633 40.4734C73.0642 40.4797 73.4955 40.4862 73.9268 40.4928C74.6045 40.4998 75.282 40.5049 75.9597 40.5068C78.9611 40.5204 81.1691 40.6182 83.5713 42.5632C84.7782 44.0876 84.5901 46.322 84.3781 48.1554C83.7278 49.8064 82.6888 50.8708 81.2297 51.8836C80.247 52.2659 80.247 52.2659 79.2029 52.5632C78.8591 52.6637 78.5154 52.7642 78.1612 52.8678C75.729 53.4815 73.3347 53.5258 70.8391 53.5457C70.3695 53.5509 69.9 53.5593 69.4306 53.5712C66.0497 53.6561 63.522 53.3543 60.8239 51.1651C59.057 49.0231 58.0258 46.9194 57.4393 44.2137C57.361 43.86 57.2826 43.5064 57.2019 43.1421C56.7325 40.5239 56.622 37.9303 56.619 35.2756C56.6174 34.7793 56.6174 34.7793 56.6158 34.2731C56.6142 33.5773 56.6135 32.8815 56.6135 32.1857C56.6128 31.1325 56.6071 30.0794 56.6012 29.0262C56.5675 16.4855 56.5675 16.4855 60.707 12.1372C63.3175 9.71256 65.7807 9.48153 69.2459 9.53406Z" fill="#51280E"/>
<path d="M335.623 9.63104C335.887 9.71074 336.151 9.79043 336.423 9.87255C338.908 10.7357 340.89 12.0506 342.078 14.4272C342.899 16.5558 342.718 18.3748 341.907 20.4878C341.414 21.5315 341.021 22.0491 340.031 22.6796C338.218 23.0034 336.685 22.8005 335.013 22.0582C333.227 21.271 331.572 21.1745 329.641 21.4369C327.562 22.311 326.482 24.2027 325.535 26.1517C324.89 27.8825 324.834 29.5935 324.82 31.4174C324.818 31.7679 324.818 31.7679 324.815 32.1255C324.854 35.0949 325.633 38.1165 327.675 40.3786C329.004 41.5024 330.185 41.9219 331.935 41.8155C333.833 41.4058 335.569 40.4254 337.176 39.3665C338.78 38.3136 340.373 38.1954 342.235 38.5242C343.232 39.0441 343.927 39.6889 344.439 40.699C344.759 44.0493 344.469 46.5105 342.55 49.398C342.429 49.5887 342.309 49.7793 342.185 49.9757C340.727 51.9767 338.022 53.2911 335.653 53.9126C330.563 54.6737 325.868 53.9378 321.455 51.2621C320.323 50.4033 319.311 49.4669 318.307 48.466C318.087 48.2593 317.867 48.0527 317.64 47.8398C314.044 44.2217 311.856 38.5681 311.695 33.5534C311.687 33.3459 311.679 33.1385 311.671 32.9247C311.435 26.2096 312.589 19.5973 316.997 14.2039C319.241 11.8493 322.044 10.0924 325.234 9.32036C325.464 9.26309 325.694 9.20582 325.931 9.14682C329.025 8.66288 332.626 8.72297 335.623 9.63104Z" fill="#51280E"/>
<path d="M114.536 9.25737C114.961 9.25471 114.961 9.25471 115.394 9.252C115.99 9.24909 116.586 9.24705 117.182 9.24584C118.076 9.24284 118.97 9.23319 119.864 9.22339C124.897 9.19445 130.702 9.16768 134.615 12.7574C136.057 14.4722 135.856 16.491 135.698 18.6409C135.161 20.2597 134.275 21.0947 132.864 22.0583C131.575 22.5476 130.41 22.6989 129.047 22.7768C127.867 22.8778 127.544 22.9669 126.548 23.6894C125.642 24.9571 125.585 26.1466 125.568 27.6678C125.564 27.9731 125.56 28.2783 125.555 28.5929C125.552 28.9207 125.549 29.2485 125.545 29.5863C125.535 30.292 125.524 30.9977 125.514 31.7034C125.499 32.8068 125.485 33.9102 125.473 35.0137C125.313 48.4579 125.313 48.4579 122.828 52.5438C121.129 54.0233 118.849 53.9373 116.696 53.9018C115.264 53.7096 114.547 53.3097 113.506 52.352C111.938 49.7922 111.964 47.0148 112.013 44.1095C112.026 43.3883 112.032 42.6673 112.036 41.9461C112.047 40.4171 112.065 38.8882 112.084 37.3593C112.107 35.5817 112.126 33.8042 112.137 32.0264C112.143 31.3183 112.155 30.6105 112.167 29.9025C112.171 29.4667 112.174 29.0309 112.177 28.5951C112.184 28.0275 112.184 28.0275 112.192 27.4485C112.072 26.2842 111.748 25.5418 111.14 24.5438C110.08 23.729 108.901 23.8398 107.598 23.8059C105.165 23.6912 103.408 23.2845 101.734 21.4758C100.365 19.4895 100.174 17.5785 100.435 15.2234C100.928 13.3202 102.028 12.2788 103.703 11.2829C107.192 9.55359 110.695 9.27664 114.536 9.25737Z" fill="#51280E"/>
<path d="M277.276 9.21591C278.163 9.22325 279.05 9.22228 279.937 9.22023C291.492 9.23699 291.492 9.23699 295.323 12.7378C296.761 14.5562 296.478 16.7701 296.268 18.9514C295.899 20.2786 295.201 20.9698 294.123 21.8446C292.605 22.6197 290.836 22.6437 289.161 22.7767C287.928 23.0208 287.551 23.2368 286.823 24.233C286.034 25.9879 286.094 27.7108 286.085 29.5946C286.08 29.9358 286.076 30.277 286.071 30.6286C286.056 31.72 286.045 32.8114 286.036 33.9029C285.96 42.0465 285.96 42.0465 285.588 45.756C285.551 46.1272 285.551 46.1272 285.513 46.5059C285.251 48.8429 284.884 51.2404 283.005 52.8543C281.626 53.7419 280.647 53.8232 279.03 53.8446C278.809 53.8536 278.587 53.8626 278.359 53.8719C276.733 53.8913 275.835 53.5557 274.544 52.5048C273.108 50.6663 272.931 49.4279 272.92 47.1426C272.918 46.9177 272.917 46.6927 272.915 46.461C272.912 45.9736 272.909 45.4862 272.907 44.9989C272.903 44.227 272.897 43.4552 272.89 42.6834C272.871 40.4894 272.854 38.2953 272.843 36.1012C272.837 34.7581 272.825 33.4152 272.811 32.0721C272.807 31.5609 272.804 31.0497 272.803 30.5386C272.802 29.8231 272.794 29.108 272.786 28.3926C272.783 27.9859 272.781 27.5792 272.778 27.1601C272.647 26.0321 272.393 25.4457 271.71 24.5437C270.627 23.7491 269.482 23.8399 268.168 23.8058C265.805 23.6968 264.173 23.32 262.481 21.6504C261.18 19.6048 260.667 17.9528 261.005 15.5339C261.581 13.6233 262.778 12.2496 264.469 11.1844C268.61 9.30664 272.79 9.17626 277.276 9.21591Z" fill="#50280E"/>
<path d="M229.147 24.4272C230.151 24.5438 230.151 24.5438 230.859 25.2039C232.506 27.8743 232.593 31.1234 232.355 34.1748C232.076 34.9942 231.88 35.3149 231.153 35.7974C229.883 36.2436 228.642 36.2395 227.317 36.0389C226.333 35.4175 226.333 35.4175 225.743 34.4855C225.629 33.5514 225.626 32.9128 225.743 32.0001C225.773 31.7397 225.803 31.4794 225.834 31.2112C226.798 24.7363 226.798 24.7363 229.147 24.4272Z" fill="#FAF9F5"/>
<path d="M6 26V29V42C6.13738 44.0792 6.22464 45.2211 6.5 47C6.62131 47.7939 6.75675 48.2269 7 49C7.29805 49.9105 7.53279 50.4703 8 51.5C9.08709 53.4151 9.75376 53.8534 11 54C12.3569 54.2455 13.1253 54.1959 14.5 54C16.2654 53.4593 17.2012 52.7801 18.5 49C18.7614 47.0513 18.8807 45.9534 19 44V39C19.4534 38.1328 19.6933 37.7114 20 37.5C20.2497 37.1669 20.5452 37.0634 21 37L21.2215 36.9884C23.9672 36.8448 25.5705 36.7609 28 36.5C28.847 36.3171 29.3021 36.2082 30 36C31.8406 35.259 32.7556 34.8305 34 34C35.3207 33.1321 35.9869 32.5916 37 31.5C38.7609 29.1407 39.5459 27.6224 40 24C40.0758 22.6462 40.0727 22.0226 40 21C39.7603 19.0631 39.356 17.9635 38 16C37.0364 14.7212 36.3762 14.0757 35 13C34.3538 12.4333 32.861 11.3831 28 10C26.1034 9.40654 24.82 9.16684 22 9.00001C19.351 8.88954 18.0767 8.875 16.5 9.00001C15.3967 8.97751 14.5056 9.32282 12.5 10.5L10.5 12L9 14L8 15.5L7 18.5C6.72808 19.8614 6.63658 20.6299 6.5 22C6.23339 23.5502 6.14838 24.43 6 26Z" fill="#51280E"/>
<path d="M27 24C26.3561 25.1113 25.8964 25.4974 25 26C24.162 26.4558 23.6013 26.6675 22.5 27C21.2315 27.3132 20.4712 27.3332 19 27C18.4053 26.5393 18.2102 26.1981 18 25.5C17.2958 23.4428 17.4772 22.3746 18 20.5C18.6261 19.2384 19.3055 18.8266 21 18.5C22.7219 18.7791 23.4793 18.9928 24.5 19.5C25.7648 20.1405 26.3216 20.5738 27 21.5C27.2302 22.4775 27.2348 23.039 27 24Z" fill="#E3DCDA"/>
<path d="M162.5 53C160.369 54.245 159.163 54.1049 157 53L156 52.5C152.178 44.1474 152.193 43.1516 152 41C151.859 34.8753 151.924 31.7139 152 26C152.066 23.0529 152.156 21.4879 152.5 19C152.697 17.3435 152.864 16.444 153.5 15C154.033 13.4593 154.362 12.781 155 12C155.723 10.7189 156.353 10.4456 157.5 9.99996C159.99 9.52904 160.909 9.49821 161.5 9.99996C165.307 13.0787 166.497 14.549 168 17C170.341 22.1281 171.802 25.641 173.5 28C173.941 28.1357 174.164 28.1555 174.5 28C175.258 26.5668 175.846 24.2133 177 19C178.455 14.9668 179.455 13.2626 181.5 11C182.063 10.4413 182.39 10.2121 183 9.99996C184.966 9.37061 186.06 9.3945 188 9.99996C188.913 10.4882 189.434 10.755 190 11.5C190.392 12.0909 190.61 12.5098 191 13.5C192.693 17.2011 193.441 19.0614 193.5 21C193.915 29.8186 193.672 33.9774 193.5 41C193.379 42.9217 193.279 43.845 193 45C191.961 50.1544 191.113 51.4014 189.5 53C186.939 54.1475 185.517 54.0572 183 53C181.725 50.9884 181.166 49.6929 180.5 47C180.263 44.2767 180.344 40.8012 180.5 34.5C179.593 34.5833 179.206 34.7427 179 35.5L178.5 37L177.5 40.5C176.467 43.0346 175.938 43.765 175 45C172.985 46.027 171.882 46.1701 170 45C169.175 43.7287 168.745 42.803 168 41C167.465 38.5326 167.108 37.0455 166 33.5L165.969 33.492C165.053 33.2545 164.528 33.1184 164.5 33.5C164.287 34.4514 164.204 41.5932 164 49C163.636 50.7707 163.339 51.6738 162.5 53Z" fill="#51280E"/>
<path d="M225.5 45.4999C225.089 45.5813 224.872 46.5079 224.5 48.9999C224.18 49.9805 223.963 50.4228 223.5 50.9999C222.552 52.2032 222.158 52.5291 221.5 52.9998C218.828 53.9695 217.301 54.0574 214.5 52.9998C214.183 52.7415 213.956 52.5072 213.5 51.9998C212.741 50.7447 212.424 50.0372 212 48.7648C211.307 43.9876 211.345 40.2209 212 31.9998C212.335 29.9322 212.552 28.8399 213 26.9998C213.788 24.2292 214.227 22.9349 215 20.9998C216.462 18.0188 217.223 16.7427 218.5 14.9998C221.367 12.0743 222.822 11.0722 225.245 9.99982C227.424 9.44297 228.921 9.46548 232 9.99982C232.972 10.2876 233.518 10.4648 234.5 10.9998C236.458 12.199 237.452 13.0277 239 14.9998C241.205 18.5642 242.001 20.2594 243 22.9998C243.478 24.7218 243.711 25.6198 244 26.9998C244.569 29.8075 244.785 31.2036 245 33.3934C245.359 40.7464 245.385 43.8838 245 46.9999C244.863 47.8836 244.753 48.3204 244.5 48.9999C243.927 50.5494 243.393 51.4162 241.959 52.9999C239.326 54.11 237.912 54.1218 235.5 52.9999C234.572 52.3005 234.14 51.7456 233.5 50.4999C232.967 48.6011 232.737 47.7004 232.5 46.4999C232.336 45.9983 232.138 45.7693 231.5 45.4999C229.229 45.0186 227.902 45.1093 225.5 45.4999Z" fill="#50280E"/>
<path d="M227 36.0001C226.531 35.666 226.323 35.4393 226 35.0001C225.417 33.9766 225.505 32.7426 226 30.0001L226.5 27.0001C226.751 25.3561 227.129 24.9085 228 24.5001C229.098 24.3181 229.548 24.3114 230 24.5001C230.907 24.8609 231.336 25.7033 232 28.0001C232.243 28.6717 232.345 29.1269 232.5 30.0001C232.557 31.5204 232.552 32.3989 232.5 34.0001C232.309 34.941 231.997 35.3822 231 36.0001C229.427 36.3094 228.553 36.273 227 36.0001Z" fill="#E3DCDA"/>
<path d="M375 50.0001C374.332 51.7494 373.878 52.3197 373 53.0001C371.053 54.0873 369.732 54.0842 367 53.0001C365.928 52.4649 365.113 50.8451 363.5 47.0001C362.903 45.5464 362.575 44.5874 362 42.6845C361.762 33.4341 361.744 28.25 362 19.0001C362.339 17.312 362.551 16.4212 363 15.0001C364.016 12.8388 364.567 11.9096 365.5 11.0001C368.703 9.0231 370.455 8.99769 373.5 11.0001C375.162 12.994 375.679 14.5614 376 18.0001C376.352 22.4774 376.431 24.8499 376.5 29.0001C376.431 30.8048 376.358 31.8476 377 33.0001C378.696 33.9878 380.022 33.8012 381.5 33.0001C382.225 32.4446 382.363 31.952 382.5 31.0001C382.399 25.601 382.329 22.5837 382.5 17.0001C383.288 13.5562 383.862 12.3991 385 11.0001C387.353 9.13225 389.161 9.2691 393 11.0001C395.362 15.2258 396.215 17.4797 397 21.3534C397.166 28.8281 397.147 32.6233 397 39.0001C396.705 43.9696 396.344 46.487 395 50.0001C394.149 51.4849 393.622 52.1629 392.576 53.0001C389.659 53.9654 388.059 54.2831 385.5 53.0001C384.961 52.5828 384.623 52.0733 384 51.0001C383.169 45.9327 382.721 43.8002 382 43.0001C379.824 42.3835 378.619 42.4037 376.5 43.0001C375.677 44.3882 375.391 46.1643 375 50.0001Z" fill="#51280E"/>
</svg>
