<svg width="275" height="249" viewBox="0 0 275 249" fill="none" xmlns="http://www.w3.org/2000/svg">
<g clip-path="url(#clip0_2335_102)">
<path d="M194.729 76.1999C196.637 77.6954 197.852 79.7679 198.267 82.1685C198.528 83.5873 198.9 84.1248 200.096 84.9882C200.738 85.3834 201.387 85.7624 202.041 86.1382C203.729 87.1182 205.2 88.2143 206.663 89.504C206.851 89.6682 207.038 89.8324 207.23 90.0017C216.07 97.9002 220.503 107.978 222.709 119.47C222.972 119.048 222.972 119.048 223.241 118.617C226.669 113.172 230.615 107.514 237.199 105.951C237.583 105.879 237.966 105.808 238.361 105.735C239.643 105.228 240.143 104.575 240.999 103.526C243.153 100.987 245.83 98.7648 249.17 98.0909C249.721 98.0798 250.273 98.0859 250.825 98.1044C251.146 98.111 251.467 98.1177 251.798 98.1246C252.466 98.1412 253.132 98.1616 253.799 98.186C255.894 98.2214 257.423 97.9066 259.357 97.1223C260.717 96.6531 262.017 96.6497 263.443 96.6761C263.712 96.6712 263.981 96.6664 264.258 96.6613C265.998 96.6721 267.007 96.9398 268.385 98.0909C269.385 99.2218 269.571 100.356 269.513 101.824C269.134 103.858 268.133 105.693 267.245 107.548C266.388 109.356 265.568 111.182 264.743 113.005C264.648 113.213 264.554 113.421 264.456 113.636C262.486 117.983 260.599 122.364 258.726 126.754C257.804 128.915 256.877 131.073 255.95 133.232C252.932 140.251 249.918 147.273 246.92 154.301C246.474 155.347 246.027 156.393 245.58 157.439C244.183 160.711 242.79 163.984 241.408 167.261C240.76 168.797 240.109 170.333 239.459 171.868C239.153 172.592 238.848 173.317 238.543 174.042C233.488 186.094 233.488 186.094 230.269 189.579C230.08 189.793 229.891 190.007 229.696 190.227C228.097 191.935 226.312 193.142 224.284 194.295C223.99 194.466 223.695 194.636 223.392 194.811C214.583 199.544 204.064 201.953 194.565 204.959C193.905 205.168 193.244 205.378 192.584 205.587C191.323 205.987 190.061 206.384 188.799 206.78C185.979 207.67 183.176 208.588 180.4 209.606C180.048 209.735 180.048 209.735 179.69 209.867C165.12 215.3 150.552 224.185 143.643 238.625C143.19 239.662 142.764 240.703 142.383 241.769C141.818 241.786 141.254 241.798 140.689 241.808C140.375 241.815 140.061 241.823 139.737 241.83C138.918 241.769 138.918 241.769 138.288 241.14C138.22 240.276 138.192 239.444 138.193 238.579C138.191 238.319 138.189 238.058 138.187 237.79C138.184 236.935 138.186 236.08 138.189 235.226C138.19 234.934 138.19 234.643 138.191 234.343C138.213 226.745 139.046 219.362 140.493 211.901C140.277 212.017 140.062 212.132 139.839 212.251C139.556 212.398 139.273 212.545 138.982 212.697C138.701 212.845 138.421 212.993 138.132 213.145C137.343 213.473 137.343 213.473 136.319 213.316C136.033 213.161 135.747 213.005 135.452 212.845C134.823 212.529 134.193 212.214 133.562 211.901C133.607 212.159 133.651 212.416 133.697 212.681C134.989 220.233 135.816 227.573 135.846 235.245C135.848 235.515 135.85 235.785 135.851 236.063C135.855 236.833 135.854 237.604 135.851 238.374C135.852 238.608 135.854 238.841 135.855 239.082C135.844 240.254 135.806 240.768 135.137 241.769C134.318 241.861 134.318 241.861 133.366 241.828C133.05 241.819 132.734 241.811 132.408 241.802C132.044 241.786 132.044 241.786 131.672 241.769C131.592 241.555 131.511 241.341 131.428 241.12C129.725 236.819 127.526 232.964 124.427 229.508C124.065 229.095 124.065 229.095 123.696 228.675C121.576 226.286 119.425 224.098 116.867 222.178C116.631 222.001 116.395 221.823 116.152 221.641C115.448 221.116 114.741 220.595 114.032 220.076C113.847 219.938 113.662 219.801 113.472 219.659C110.98 217.827 108.3 216.335 105.566 214.894C105.028 214.611 104.492 214.324 103.955 214.037C96.9863 210.443 89.4634 208.06 82.0067 205.704C80.8831 205.348 79.7607 204.988 78.6383 204.628C75.3708 203.582 72.1013 202.543 68.8305 201.507C45.8305 194.223 45.8305 194.223 40.9791 185.84C40.8431 185.606 40.7071 185.373 40.5671 185.132C39.2293 182.791 38.1508 180.372 37.1116 177.888C36.9008 177.392 36.6895 176.896 36.478 176.401C36.0137 175.311 35.5515 174.221 35.0908 173.13C34.2843 171.221 33.4699 169.315 32.6548 167.41C31.4295 164.545 30.2059 161.679 28.9842 158.812C28.7501 158.262 28.7501 158.262 28.5112 157.702C27.8812 156.223 27.2514 154.745 26.6215 153.267C22.5137 143.624 18.3934 133.987 14.2154 124.374C13.8563 123.548 13.4976 122.721 13.1389 121.894C10.5893 116.02 8.03058 110.153 5.30896 104.355C4.57828 102.711 4.45793 101.121 4.72509 99.3484C5.42482 98.0799 6.18024 97.2924 7.56014 96.8333C8.55604 96.7454 9.55333 96.746 10.5527 96.735C10.9535 96.7213 10.9535 96.7213 11.3624 96.7074C12.923 96.6921 14.112 96.8786 15.562 97.4682C17.456 98.2213 19.1119 98.1937 21.1251 98.0909C24.9796 97.8947 27.8401 98.8151 30.8706 101.235C33.6413 103.782 33.6413 103.782 34.4636 105.075C35.1846 105.881 35.8412 105.908 36.8951 106.088C40.3758 106.815 42.5376 108.517 45.0458 110.981C45.283 111.214 45.5201 111.446 45.7644 111.686C48.0182 114.038 49.8866 116.871 51.3459 119.784C51.4051 119.478 51.4051 119.478 51.4655 119.166C53.0498 111.067 55.3349 103.454 60.4811 96.8333C60.7036 96.5419 60.9262 96.2505 61.1554 95.9503C68.9457 86.0914 79.9686 80.3026 92.3361 78.4511C93.1653 78.3624 93.9832 78.3116 94.8167 78.284C95.17 78.2715 95.5233 78.2589 95.8873 78.246C106.97 78.0489 117.232 81.8924 125.687 88.9734C126.062 89.2804 126.062 89.2804 126.444 89.5936C127.922 90.8368 129.192 92.195 130.412 93.6893C130.66 93.9909 130.907 94.2924 131.162 94.603C133.532 97.5528 135.772 100.67 136.713 104.379C136.92 104.379 137.128 104.379 137.343 104.379C137.382 104.063 137.382 104.063 137.423 103.74C137.726 102.533 138.285 101.522 138.898 100.449C139.024 100.228 139.15 100.007 139.279 99.7786C145.526 89.0642 155.747 82.4305 167.506 79.2186C169.693 78.7193 171.82 78.54 174.056 78.408C177.298 78.2141 179.91 77.9452 182.873 76.5647C184.111 76.0182 185.331 75.6613 186.641 75.3366C187.24 75.187 187.24 75.187 187.852 75.0345C190.395 74.5735 192.536 74.8207 194.729 76.1999ZM136.713 157.197C136.461 157.575 136.212 157.955 135.964 158.337C134.396 160.454 131.926 161.666 129.359 162.162C128.441 162.234 127.542 162.195 126.623 162.156C124.59 162.01 124.59 162.01 122.738 162.715C122.273 163.267 121.91 163.781 121.592 164.428C122.08 165.621 122.821 166.306 123.758 167.179C130.111 173.333 134.144 181.538 136.713 189.894C137.388 189.641 137.388 189.641 137.59 189.014C137.671 188.768 137.751 188.521 137.833 188.268C137.927 187.991 138.021 187.714 138.117 187.428C138.27 186.976 138.27 186.976 138.425 186.514C141.06 179.036 145.104 172.656 150.573 166.943C151.214 166.218 151.839 165.483 152.463 164.742C151.863 163.698 151.249 162.924 150.258 162.227C149.055 162.078 147.936 162.131 146.726 162.195C144.039 162.267 141.389 161.306 139.233 159.712C138.592 159.065 138.009 158.402 137.441 157.692C137.305 157.529 137.168 157.365 137.028 157.197C136.924 157.197 136.82 157.197 136.713 157.197Z" fill="#52280E"/>
<path d="M192.232 79.0896C194.844 81.3998 195.463 85.3403 195.934 88.659C195.958 89.3848 195.968 90.1113 195.964 90.8376C195.963 91.2429 195.962 91.6482 195.961 92.0657C195.959 92.489 195.956 92.9123 195.953 93.3356C195.952 93.7662 195.95 94.1969 195.949 94.6275C195.945 95.6772 195.94 96.7268 195.934 97.7764C197.24 97.8724 197.24 97.8724 198.395 97.3834C199.099 96.3477 199.131 95.2332 199.183 94.0086C199.196 93.7148 199.21 93.4209 199.223 93.1182C199.236 92.8138 199.248 92.5095 199.261 92.1959C199.281 91.7321 199.281 91.7321 199.302 91.2589C199.335 90.4971 199.368 89.7352 199.399 88.9734C209.291 95.0569 215.616 104.995 218.279 116.149C218.681 118.203 218.708 120.213 218.614 122.299C218.339 122.437 218.065 122.575 217.782 122.717C210.375 126.588 207.026 133.643 203.174 140.7C198.287 149.652 193.223 158.5 186.014 165.822C185.699 166.148 185.391 166.481 185.091 166.821C183.571 168.472 181.895 169.37 179.883 170.328C179.551 170.491 179.218 170.654 178.876 170.822C177.818 171.341 176.756 171.854 175.694 172.366C166.542 176.732 166.542 176.732 158.133 182.348C157.843 182.574 157.553 182.8 157.254 183.032C150.711 188.241 146.893 194.516 143.913 202.21C143.817 202.457 143.721 202.703 143.622 202.957C143.415 203.499 143.215 204.042 143.02 204.588C142.916 204.868 142.812 205.149 142.705 205.438C142.614 205.693 142.523 205.947 142.429 206.21C141.887 207.202 141.137 207.545 140.116 207.964C139.548 208.129 139.548 208.129 138.918 208.129C138.507 193.788 142.456 180.775 152.433 170.15C152.651 169.921 152.869 169.693 153.093 169.458C153.317 169.207 153.541 168.956 153.772 168.698C153.99 168.463 154.207 168.227 154.432 167.984C154.622 167.776 154.812 167.567 155.007 167.352C155.613 166.943 155.613 166.943 156.356 166.996C156.925 167.175 157.488 167.372 158.044 167.584C159.403 167.981 160.661 168.007 162.07 168.004C162.347 168.004 162.624 168.004 162.909 168.003C165.402 167.959 168.352 167.753 170.381 166.164C170.82 165.676 170.82 165.676 170.674 164.88C170.467 164.068 170.467 164.068 169.788 163.485C168.821 163.57 168.012 163.754 167.111 164.114C164.378 165.204 161.013 165.063 158.256 164.131C156.539 163.375 155.014 162.327 153.723 160.97C154.081 159.896 154.344 159.731 155.219 159.064C156.694 157.821 157.402 156.44 158.133 154.682C158.249 154.414 158.364 154.147 158.484 153.871C158.863 152.837 158.864 152 158.763 150.909C158.46 150.24 158.46 150.24 157.818 149.966C157.185 150.054 156.555 150.158 155.928 150.28C155.852 150.553 155.775 150.826 155.697 151.108C154.763 154.31 153.79 156.374 150.888 158.14C148.736 159.032 146.419 159.18 144.21 158.424C141.861 157.343 140.497 156.314 139.562 153.909C139.091 152.483 138.692 151.16 138.918 149.651C139.692 149.005 139.692 149.005 140.749 148.433C141.125 148.219 141.501 148.004 141.877 147.788C142.067 147.681 142.257 147.573 142.454 147.462C145.103 145.918 147.155 144.341 148.466 141.536C148.86 139.713 149.053 137.877 148.171 136.172C147.166 134.852 146.158 134.14 144.588 133.617C143.86 133.587 143.131 133.576 142.402 133.578C141.823 133.577 141.823 133.577 141.232 133.576C140.378 133.609 139.729 133.709 138.918 133.932C138.873 130.95 138.84 127.968 138.82 124.985C138.81 123.6 138.797 122.215 138.775 120.83C138.754 119.488 138.743 118.147 138.738 116.806C138.735 116.298 138.728 115.791 138.718 115.284C138.555 106.981 142.927 99.7702 148.51 93.8514C153.544 88.8894 159.85 85.2674 166.638 83.3143C166.87 83.2438 167.102 83.1732 167.341 83.1006C168.829 82.6812 170.148 82.6309 171.678 82.6855C170.773 83.6025 169.852 84.4925 168.905 85.3652C168.477 85.7687 168.05 86.1724 167.622 86.5761C167.402 86.7755 167.181 86.9749 166.953 87.1803C166.353 87.7556 165.833 88.2778 165.378 88.9734C165.335 90.1906 165.335 90.1906 165.693 91.1741C166.53 91.5196 166.53 91.5196 167.583 91.4885C168.421 90.9074 169.055 90.1455 169.729 89.386C174.089 84.7902 185.442 75.8316 192.232 79.0896Z" fill="#FEE5C6"/>
<path d="M122.292 91.0797C123.24 91.9233 124.149 92.8035 125.057 93.6894C125.431 94.0329 125.431 94.0329 125.812 94.3833C130.289 98.6019 134.95 105.721 135.175 112.041C135.175 112.446 135.174 112.85 135.173 113.266C135.173 113.49 135.173 113.715 135.173 113.945C135.173 114.682 135.171 115.419 135.168 116.155C135.168 116.667 135.167 117.18 135.167 117.692C135.166 119.037 135.163 120.383 135.159 121.728C135.156 123.102 135.154 124.476 135.153 125.85C135.149 128.544 135.144 131.238 135.137 133.932C134.899 133.882 134.66 133.832 134.414 133.781C132.072 133.332 129.596 133.139 127.518 134.443C126.206 135.489 125.486 136.412 125.287 138.12C125.17 140.955 125.962 142.816 127.836 144.908C129.067 146.085 130.504 146.908 131.968 147.765C132.273 147.949 132.579 148.132 132.894 148.322C133.639 148.769 134.387 149.212 135.137 149.652C134.91 152.225 134.486 154.447 132.854 156.529C130.551 158.305 128.267 159.015 125.372 158.769C122.796 158.294 121.052 156.899 119.427 154.898C118.979 153.83 118.806 152.776 118.639 151.634C118.414 150.804 118.191 150.468 117.497 149.966C116.514 149.99 116.514 149.99 115.607 150.28C115.007 151.479 115.15 152.644 115.53 153.887C116.54 156.51 117.818 158.288 120.017 160.027C119.846 161.21 119.413 161.657 118.482 162.384C115.561 164.519 112.586 165.17 108.992 164.742C108.054 164.46 107.171 164.123 106.269 163.744C105.306 163.408 104.6 163.487 103.637 163.799C103.395 164.696 103.395 164.696 103.322 165.686C104.436 167.224 106.611 167.527 108.362 167.886C111.136 168.183 113.817 168.064 116.459 167.119C117.393 166.892 117.849 166.925 118.757 167.258C119.46 167.842 120.076 168.41 120.706 169.065C120.976 169.342 120.976 169.342 121.251 169.623C126.87 175.484 131.316 182.97 133.325 190.854C133.548 191.781 133.548 191.781 133.876 192.661C135.435 197.618 135.262 202.998 135.137 208.129C132.432 207.245 132.432 207.245 131.357 206.242C130.981 205.288 130.718 204.326 130.448 203.337C126.948 191.546 118.599 183.124 108.047 177.318C104.484 175.397 100.892 173.53 97.215 171.836C92.5757 169.682 88.9507 167.463 85.6816 163.485C85.5201 163.293 85.3586 163.102 85.1923 162.905C84.1518 161.665 83.1751 160.387 82.2165 159.083C81.9606 158.743 81.7046 158.403 81.4487 158.063C78.2804 153.795 75.5567 149.205 72.9829 144.562C72.8335 144.293 72.6841 144.024 72.5301 143.747C72.3949 143.5 72.2597 143.252 72.1203 142.996C72.0012 142.778 71.8821 142.56 71.7594 142.336C71.5063 141.792 71.5063 141.792 71.5063 141.163C71.8454 141.136 72.1844 141.109 72.5338 141.081C78.0668 140.576 82.9356 138.82 86.6253 134.478C89.4101 130.68 90.1761 126.507 90.7277 121.949C91.2499 117.708 91.8221 113.665 93.5567 109.724C93.642 109.527 93.7272 109.331 93.8151 109.129C95.8245 104.585 98.8506 100.544 102.712 97.4032C103.651 96.6309 103.651 96.6309 104.129 95.5598C104.148 94.8874 104.148 94.8874 103.952 94.0038C103.061 93.6753 102.667 93.5454 101.747 93.6894C100.565 94.4997 99.6006 95.5028 98.5968 96.519C98.3893 96.7005 98.1818 96.8821 97.968 97.0692C90.9511 103.359 88.3758 112.943 87.4199 121.906C86.865 126.858 85.679 131.347 81.7218 134.638C79.1004 136.527 76.3033 137.504 73.0616 137.488C72.7397 137.496 72.7397 137.496 72.4113 137.504C70.9282 137.505 69.9171 137.248 68.6713 136.447C68.1397 135.846 68.1397 135.846 67.7262 135.17C67.5695 134.919 67.4128 134.669 67.2513 134.411C66.9425 133.89 66.6356 133.367 66.3309 132.844C63.4714 127.954 60.1911 124.794 55.126 122.299C55.2907 113.274 59.0995 104.314 64.8912 97.4621C65.1247 97.1849 65.3582 96.9077 65.5987 96.6221C79.7227 80.44 105.459 76.6319 122.292 91.0797Z" fill="#B1804F"/>
<path d="M11.7241 99.4272C18.6031 101.279 23.0398 107.387 26.426 113.238C29.9453 119.516 32.9886 126.094 36.0736 132.592C38.9736 139.023 38.9736 139.023 43.1558 144.621C43.2123 145.268 43.2403 145.917 43.2542 146.567C43.8544 156.209 51.2983 164.552 58.1284 170.731C60.4613 172.841 62.6728 175.07 64.8912 177.299C65.3033 177.712 65.7155 178.124 66.1278 178.537C66.8789 179.289 67.6295 180.042 68.3796 180.795C68.539 180.954 68.6984 181.114 68.8626 181.278C69.2509 181.669 69.6327 182.067 70.0134 182.466C70.5217 183.033 70.5217 183.033 71.2356 183.1C71.8508 183.059 72.4661 183.018 73.0813 182.977C73.3178 182.247 73.3178 182.247 73.3963 181.405C73.0878 180.798 73.0878 180.798 72.5433 180.278C72.2348 179.953 72.2348 179.953 71.9202 179.621C71.6796 179.38 71.4391 179.139 71.1913 178.89C70.9239 178.619 70.6564 178.348 70.3809 178.069C69.6018 177.289 68.8179 176.513 68.0305 175.741C67.5016 175.221 66.9742 174.701 66.4472 174.179C64.9503 172.699 63.4527 171.219 61.9497 169.744C61.0252 168.837 60.104 167.926 59.1847 167.014C58.8388 166.672 58.4918 166.331 58.1435 165.991C55.5629 163.473 53.3987 160.787 51.3459 157.826C51.1536 157.549 50.9613 157.273 50.7631 156.988C48.1909 153.166 46.5012 148.287 47.2509 143.678C47.7357 142.752 47.7357 142.752 48.1959 142.106C52.5703 142.728 56.5457 146.668 59.8511 149.337C60.0681 149.511 60.2851 149.685 60.5086 149.865C61.9766 151.043 63.4353 152.232 64.8912 153.424C65.2245 153.697 65.2245 153.697 65.5646 153.975C69.8144 157.45 69.8144 157.45 71.8202 159.172C78.8419 165.187 86.5846 169.779 94.8524 173.873C95.1385 174.015 95.4246 174.157 95.7193 174.303C97.1593 175.017 98.601 175.726 100.046 176.43C109.927 181.276 118.628 187.159 123.797 197.125C123.984 197.486 124.172 197.846 124.365 198.218C129.234 208.111 131.795 220.389 131.357 231.394C130.471 230.539 129.692 229.654 128.936 228.682C117.997 214.929 101.236 208.582 84.9737 203.442C83.8926 203.1 82.8125 202.754 81.7323 202.409C80.0203 201.862 78.3078 201.317 76.5949 200.772C74.1845 200.006 71.7754 199.236 69.3674 198.462C68.7583 198.266 68.1491 198.071 67.5399 197.876C53.9902 193.517 53.9902 193.517 48.8259 189.265C48.5226 189.016 48.5226 189.016 48.2131 188.762C43.282 184.282 41.0276 176.507 38.5395 170.533C37.3801 167.75 36.1981 164.977 35.005 162.208C33.1478 157.894 31.3016 153.576 29.4599 149.256C22.2673 132.308 22.2673 132.308 14.884 115.442C14.784 115.217 14.6839 114.993 14.5809 114.762C13.6402 112.657 12.6935 110.554 11.7365 108.456C11.4603 107.85 11.1852 107.243 10.9105 106.636C10.5786 105.904 10.2443 105.172 9.907 104.442C9.69062 103.964 9.69062 103.964 9.46986 103.476C9.34358 103.201 9.21729 102.925 9.08718 102.642C8.7982 101.8 8.7399 101.176 8.82017 100.292C9.61276 99.1603 10.3979 99.2209 11.7241 99.4272Z" fill="#EAAF79"/>
<path d="M264.605 99.6629C264.92 99.9773 264.92 99.9773 264.999 101.104C264.979 102.506 264.555 103.638 263.961 104.893C263.81 105.227 263.81 105.227 263.656 105.568C263.327 106.293 262.991 107.016 262.656 107.739C262.421 108.253 262.188 108.767 261.954 109.282C261.372 110.563 260.785 111.843 260.197 113.122C259.448 114.75 258.707 116.382 257.97 118.016C257.811 118.369 257.651 118.722 257.487 119.085C254.9 124.845 252.469 130.673 249.998 136.483C248.262 140.562 246.511 144.636 244.759 148.708C242.839 153.176 240.921 157.644 239.014 162.118C238.853 162.497 238.692 162.875 238.525 163.265C237.76 165.062 236.994 166.859 236.23 168.657C234.791 172.038 233.338 175.413 231.86 178.777C231.646 179.267 231.646 179.267 231.427 179.767C229.11 185.02 226.304 189.292 221.134 192.095C220.747 192.318 220.747 192.318 220.353 192.547C211.474 197.364 200.666 199.753 191.071 202.757C178.677 206.576 178.677 206.576 166.884 211.915C166.29 212.234 165.692 212.543 165.093 212.852C160.071 215.456 155.505 218.606 151.203 222.277C151.041 222.414 150.879 222.552 150.713 222.694C148.203 224.854 146.091 227.183 144.072 229.805C143.328 230.765 143.328 230.765 142.698 231.394C142.411 224.965 143.443 218.463 144.903 212.216C144.96 211.968 145.018 211.72 145.077 211.464C147.956 199.315 153.575 188.509 164.433 181.72C167.76 179.684 171.165 177.834 174.671 176.129C183.249 171.954 191.705 167.723 199.084 161.599C199.353 161.38 199.623 161.162 199.901 160.937C201.289 159.811 202.665 158.673 204.026 157.514C205.759 156.039 207.519 154.609 209.319 153.215C210.567 152.245 211.787 151.247 212.999 150.233C215.035 148.534 217.099 146.902 219.264 145.368C219.477 145.216 219.691 145.063 219.911 144.906C221.515 143.788 223.218 142.61 225.17 142.263C225.859 142.42 225.859 142.42 226.366 142.923C227.417 144.734 226.979 147.415 226.62 149.424C224.544 156.958 219.151 162.727 213.706 168.054C212.979 168.766 212.255 169.481 211.531 170.196C210.191 171.52 208.848 172.843 207.501 174.16C206.557 175.084 205.617 176.011 204.679 176.941C204.323 177.293 203.965 177.644 203.606 177.993C203.106 178.479 202.611 178.97 202.117 179.462C201.835 179.739 201.552 180.017 201.261 180.302C200.585 181.188 200.514 181.578 200.659 182.663C201.816 183.033 202.917 183 204.124 182.977C204.242 182.706 204.242 182.706 204.362 182.43C204.81 181.618 205.324 181.073 205.981 180.419C206.233 180.166 206.486 179.913 206.746 179.652C207.156 179.246 207.156 179.246 207.574 178.832C207.855 178.552 208.137 178.271 208.426 177.982C209.022 177.389 209.618 176.796 210.215 176.204C210.977 175.449 211.736 174.693 212.495 173.936C213.223 173.209 213.952 172.484 214.681 171.759C214.952 171.489 215.223 171.219 215.502 170.941C216.81 169.646 218.125 168.412 219.559 167.258C220.339 166.457 221.043 165.596 221.764 164.742C222.008 164.467 222.253 164.191 222.505 163.907C226.822 158.945 230.827 152.397 230.659 145.648C230.97 144.316 231.645 143.595 232.507 142.553C233.489 141.302 234.211 139.93 234.955 138.53C235.126 138.212 235.297 137.894 235.473 137.566C238.307 132.226 240.917 126.758 243.474 121.281C247.412 112.848 252.1 103.53 261.14 99.6629C262.385 99.2901 263.341 99.3762 264.605 99.6629Z" fill="#EAAF79"/>
<path d="M172.623 0.943067C173.042 1.13273 173.042 1.13273 173.468 1.32623C175.712 2.44408 177.471 3.89799 179.238 5.65898C179.482 5.89849 179.725 6.13801 179.977 6.38478C185.103 11.7202 187.506 19.427 187.743 26.7234C187.756 27.0918 187.769 27.4602 187.782 27.8397C187.961 38.4639 185.532 48.793 177.978 56.5908C177.789 56.8096 177.601 57.0285 177.406 57.254C173.681 61.3978 167.471 63.2038 162.056 63.5603C156.747 63.6072 152.493 62.0476 148.608 58.4538C145.156 54.9494 143.231 50.2955 142.068 45.587C141.967 45.1931 141.867 44.7992 141.764 44.3933C139.502 34.4264 141.473 23.4334 146.163 14.462C146.35 14.0944 146.537 13.7268 146.73 13.3481C149.77 7.68719 154.061 3.50041 160.023 0.943067C160.259 0.836075 160.496 0.729082 160.739 0.618848C164.175 -0.68056 169.293 -0.604655 172.623 0.943067Z" fill="#FEA99E"/>
<path d="M119.574 10.0213C125.406 14.4767 128.927 21.0777 129.994 28.294C131.002 37.473 129.751 46.8771 124.112 54.3901C121.825 57.2067 118.801 59.115 115.173 59.6771C109.543 60.0706 104.602 57.8117 100.388 54.2219C94.0001 48.3742 89.5986 40.0895 89.1071 31.3666C88.7911 23.5728 90.2764 15.0017 95.3877 8.82264C102.252 1.65567 112.552 4.95478 119.574 10.0213Z" fill="#FEA99E"/>
<path d="M225.121 34.6608C229.523 37.9485 231.518 42.5316 232.678 47.7659C233.46 54.5813 232.32 61.2986 228.049 66.8235C227.846 67.0781 227.643 67.3326 227.434 67.5948C227.29 67.7909 227.145 67.9871 226.996 68.1892C223.43 72.7773 217.357 75.6184 211.684 76.3978C207.176 76.8091 202.78 76.4034 199.084 73.5683C193.793 68.901 192.646 60.255 192.084 53.564C191.8 48.403 192.716 43.7044 196.074 39.6199C199.616 35.8834 203.659 34.0317 208.534 32.6971C208.87 32.6047 208.87 32.6047 209.212 32.5105C214.536 31.1827 220.476 31.658 225.121 34.6608Z" fill="#FEA99E"/>
<path d="M67.7262 33.3257C68.0917 33.4396 68.4571 33.5535 68.8337 33.6708C73.6502 35.3511 77.7103 38.4622 80.1665 42.9602C83.427 50.2019 81.9584 59.3754 79.3814 66.6515C77.9259 70.2452 76.0413 73.3983 72.4513 75.1401C67.4007 77.1581 61.6671 76.9322 56.6632 74.8641C54.183 73.7628 51.8375 72.5105 49.7709 70.7386C49.5662 70.5789 49.3616 70.4192 49.1507 70.2547C44.8316 66.7564 41.9568 61.1303 41.2657 55.6477C40.746 49.3812 41.5283 43.2273 45.415 38.0785C51.2306 31.3734 59.6147 30.7626 67.7262 33.3257Z" fill="#FEA99E"/>
<path d="M172.623 0.943067C173.042 1.13273 173.042 1.13273 173.468 1.32623C175.712 2.44408 177.471 3.89799 179.238 5.65898C179.482 5.89849 179.725 6.13801 179.977 6.38478C185.103 11.7202 187.506 19.427 187.743 26.7234C187.756 27.0918 187.769 27.4602 187.782 27.8397C187.961 38.4639 185.532 48.793 177.978 56.5908C177.789 56.8096 177.601 57.0285 177.406 57.254C173.681 61.3978 167.471 63.2038 162.056 63.5603C156.747 63.6072 152.493 62.0476 148.608 58.4538C145.156 54.9494 143.231 50.2955 142.068 45.587C141.967 45.1931 141.867 44.7992 141.764 44.3933C139.502 34.4264 141.473 23.4334 146.163 14.462C146.35 14.0944 146.537 13.7268 146.73 13.3481C149.77 7.68719 154.061 3.50041 160.023 0.943067C160.259 0.836075 160.496 0.729082 160.739 0.618848C164.175 -0.68056 169.293 -0.604655 172.623 0.943067ZM152.778 11.0037C149.019 15.687 146.873 21.2397 145.533 27.0378C145.455 27.36 145.377 27.6821 145.298 28.0141C143.646 36.4379 144.8 46.5142 149.628 53.7612C152.018 57.0239 154.842 58.7809 158.763 59.7347C163.957 60.2413 169.652 58.7808 173.807 55.5288C179.134 50.8948 181.878 44.8068 183.058 37.9826C183.111 37.6853 183.164 37.3881 183.219 37.0818C183.366 36.2496 183.509 35.4167 183.648 34.5832C183.71 34.2193 183.773 33.8553 183.837 33.4804C184.737 25.68 183.538 16.8231 178.526 10.5031C176.887 8.55039 175.134 6.67357 172.938 5.34458C172.699 5.1926 172.459 5.04063 172.212 4.88404C165.135 1.00861 157.401 5.55986 152.778 11.0037Z" fill="#51270E"/>
<path d="M119.574 10.0213C125.406 14.4767 128.927 21.0777 129.994 28.294C131.002 37.473 129.751 46.8771 124.112 54.3901C121.825 57.2067 118.801 59.115 115.173 59.6771C109.543 60.0706 104.602 57.8117 100.388 54.2219C94.0001 48.3742 89.5986 40.0895 89.1071 31.3666C88.7911 23.5728 90.2764 15.0017 95.3877 8.82264C102.252 1.65567 112.552 4.95478 119.574 10.0213ZM98.2818 11.3181C97.4376 12.4164 96.7453 13.565 96.0768 14.7765C95.9342 15.0273 95.7917 15.2782 95.6448 15.5367C93.1231 20.4684 92.5844 25.9981 92.9267 31.4394C92.9494 31.8296 92.9722 32.2199 92.9956 32.622C93.7561 40.0483 97.9632 47.2804 103.657 52.0322C106.866 54.4295 110.544 56.4928 114.662 55.9621C117.733 55.3034 119.971 53.6217 121.838 51.1246C125.038 46.0659 126.442 40.4613 126.416 34.544C126.414 34.1402 126.413 33.7363 126.411 33.3203C126.356 28.8934 125.766 25.0842 123.797 21.0644C123.662 20.7742 123.526 20.484 123.386 20.185C120.5 14.4244 114.989 10.7982 108.992 8.80299C105.119 7.85811 101.156 8.43805 98.2818 11.3181Z" fill="#51280E"/>
<path d="M67.7262 33.3257C68.0917 33.4396 68.4571 33.5535 68.8337 33.6708C73.6502 35.3511 77.7103 38.4622 80.1665 42.9602C83.427 50.2019 81.9584 59.3754 79.3814 66.6515C77.9259 70.2452 76.0413 73.3983 72.4513 75.1401C67.4007 77.1581 61.6671 76.9322 56.6632 74.8641C54.183 73.7628 51.8375 72.5105 49.7709 70.7386C49.5662 70.5789 49.3616 70.4192 49.1507 70.2547C44.8316 66.7564 41.9568 61.1303 41.2657 55.6477C40.746 49.3812 41.5283 43.2273 45.415 38.0785C51.2306 31.3734 59.6147 30.7626 67.7262 33.3257ZM48.5109 40.2424C45.0358 44.9423 44.6074 50.0348 45.1356 55.6612C46.0422 61.0461 49.1059 65.6466 53.4784 68.8657C55.2075 69.9977 56.9739 70.9472 58.9061 71.6818C59.133 71.7758 59.36 71.8698 59.5939 71.9667C63.3882 73.3461 67.8549 72.9817 71.5063 71.3674C74.0574 70.0063 75.2692 66.9841 76.1132 64.3721C77.9376 58.3242 79.7458 50.7004 76.7703 44.779C74.1718 40.133 69.9233 38.0005 65.0093 36.4414C58.965 34.8146 52.8025 35.3577 48.5109 40.2424Z" fill="#51280E"/>
<path d="M225.121 34.6608C229.523 37.9485 231.518 42.5316 232.678 47.7659C233.46 54.5813 232.32 61.2986 228.049 66.8235C227.846 67.0781 227.643 67.3326 227.434 67.5948C227.29 67.7909 227.145 67.9871 226.996 68.1892C223.43 72.7773 217.357 75.6184 211.684 76.3978C207.176 76.8091 202.78 76.4034 199.084 73.5683C193.793 68.901 192.646 60.255 192.084 53.564C191.8 48.403 192.716 43.7044 196.074 39.6199C199.616 35.8834 203.659 34.0317 208.534 32.6971C208.87 32.6047 208.87 32.6047 209.212 32.5105C214.536 31.1827 220.476 31.658 225.121 34.6608ZM198.857 42.2508C195.811 46.0813 195.568 50.4935 196.007 55.1779C196.22 56.9214 196.525 58.6437 196.879 60.3637C196.922 60.5778 196.966 60.7918 197.011 61.0123C197.739 64.4065 198.958 68.8946 201.947 71.0187C202.146 71.1338 202.344 71.2489 202.549 71.3675C202.763 71.4956 202.978 71.6237 203.2 71.7556C206.301 73.2847 210.668 73.0792 213.889 71.9963C214.363 71.8407 214.363 71.8407 214.846 71.6819C220.052 69.8323 224.29 66.6078 226.804 61.6213C226.923 61.3927 227.041 61.1642 227.163 60.9287C229.521 56.0463 229.84 50.0888 228.064 44.9584C226.653 41.3644 224.555 38.3817 220.963 36.7645C220.708 36.6673 220.452 36.57 220.189 36.4698C219.914 36.3555 219.638 36.2412 219.355 36.1235C212.304 34.2371 203.705 36.902 198.857 42.2508Z" fill="#51270E"/>
<path d="M21.1054 100.606C24.7184 100.803 27.1546 102.787 29.6105 105.322C33.1091 109.289 35.5244 113.999 37.9557 118.66C38.1169 118.969 38.2781 119.278 38.4442 119.596C40.2589 123.084 42.0292 126.594 43.7901 130.109C44.1608 130.849 44.5321 131.588 44.9043 132.327C45.4498 133.41 45.9937 134.494 46.5372 135.579C46.7045 135.91 46.8717 136.242 47.0441 136.584C47.1959 136.888 47.3477 137.192 47.504 137.505C47.6381 137.772 47.7722 138.039 47.9104 138.314C48.1959 138.962 48.1959 138.962 48.1959 139.591C47.3559 139.8 46.5158 140.01 45.6758 140.22C45.4403 140.278 45.2048 140.337 44.9621 140.398C44.7818 140.443 44.6016 140.488 44.4158 140.534C41.0875 134.875 38.2304 128.954 35.4184 123.026C30.6021 112.531 30.6021 112.531 23.6254 103.436C23.4626 103.272 23.2998 103.109 23.132 102.941C22.996 102.806 22.8599 102.671 22.7198 102.532C22.1101 101.923 21.6008 101.309 21.1054 100.606Z" fill="#E7AC77"/>
<path d="M252.95 100.606C252.304 101.474 251.706 102.166 250.843 102.827C243.645 108.703 239.638 120.481 235.78 128.648C233.866 132.693 231.918 136.68 229.639 140.534C228.288 140.223 226.936 139.912 225.544 139.591C225.672 139.337 225.799 139.083 225.931 138.822C227.088 136.516 228.24 134.208 229.388 131.898C230.192 130.28 230.998 128.663 231.804 127.046C232.33 125.993 232.854 124.938 233.378 123.883C239.355 111.833 239.355 111.833 242.614 107.641C242.761 107.443 242.909 107.246 243.061 107.043C244.501 105.153 246.096 103.375 248.106 102.08C248.331 101.932 248.556 101.784 248.788 101.632C250.219 100.817 251.297 100.529 252.95 100.606Z" fill="#E8AD77"/>
<path d="M219.559 125.129C219.871 125.285 219.871 125.285 220.189 125.443C220.074 125.682 219.958 125.92 219.839 126.166C219.393 127.086 218.948 128.006 218.502 128.927C218.2 129.552 217.897 130.177 217.594 130.802C216.66 132.731 215.729 134.661 214.814 136.599C211.37 143.897 207.923 150.534 201.423 155.537C199.608 156.941 197.921 158.457 196.249 160.027C196.041 159.923 195.833 159.819 195.619 159.712C195.806 159.46 195.993 159.208 196.186 158.948C200.634 152.889 204.184 146.274 207.794 139.697C214.636 127.278 214.636 127.278 219.559 125.129Z" fill="#E8AD77"/>
<path d="M53.866 125.129C57.8217 126.17 60.8507 130.431 62.8455 133.787C64.1947 136.12 65.4875 138.484 66.7812 140.849C71.9655 150.428 71.9655 150.428 78.1214 159.398C76.9297 159.398 76.7664 159.117 75.9164 158.317C74.8376 157.328 73.7432 156.374 72.6088 155.448C72.1703 155.088 72.1703 155.088 71.7229 154.721C70.9104 154.063 70.9104 154.063 70.1478 153.562C62.4913 148.322 56.6662 133.513 53.866 125.129Z" fill="#E8AD77"/>
<path d="M189.417 82.9016C191.826 84.9708 192.679 87.8915 192.966 90.9678C193.007 91.5668 193.045 92.1662 193.079 92.7657C193.097 93.0578 193.115 93.3498 193.134 93.6507C193.15 94.0643 193.15 94.0643 193.166 94.4863C193.176 94.7339 193.186 94.9816 193.197 95.2367C193.099 95.89 193.099 95.89 192.694 96.4555C192.154 96.8332 192.154 96.8332 190.992 96.735C190.648 96.6636 190.303 96.5923 189.948 96.5188C189.484 94.5228 189.094 92.5199 188.761 90.498C188.511 89.0898 188.173 87.2013 187.113 86.1438C182.709 86.3309 178.844 89.8905 175.773 92.7461C175.619 92.9244 175.464 93.1027 175.304 93.2864C175.069 93.4858 175.069 93.4858 174.828 93.6893C173.667 93.591 173.667 93.591 172.623 93.3749C172.359 92.5306 172.229 92.0375 172.308 91.1741C174.518 87.0733 180.46 83.9181 184.643 82.3011C186.371 81.8294 187.835 82.0971 189.417 82.9016Z" fill="#542C11"/>
<path d="M236.254 109.723C236.254 110.988 235.663 111.775 235.039 112.835C233.373 115.749 231.874 118.737 230.382 121.742C230.136 122.238 229.889 122.734 229.642 123.23C228.619 125.29 227.598 127.35 226.579 129.412C225.948 130.687 225.315 131.962 224.681 133.235C224.442 133.715 224.204 134.196 223.968 134.677C220.812 141.094 220.812 141.094 218.082 142.735C217.789 142.916 217.495 143.098 217.193 143.285C216.409 143.678 216.409 143.678 215.464 143.678C215.547 143.515 215.631 143.351 215.717 143.183C217.54 139.606 219.296 136.005 220.977 132.36C229.602 113.707 229.602 113.707 236.254 109.723Z" fill="#E7AC77"/>
<path d="M37.4857 109.723C45.903 113.741 49.8947 125.553 53.6491 133.444C54.1624 134.521 54.6791 135.597 55.1974 136.672C55.5083 137.317 55.8192 137.963 56.1301 138.608C56.2704 138.899 56.4107 139.191 56.5553 139.491C57.2687 140.978 57.9534 142.471 58.5911 143.992C58.4229 143.908 58.2547 143.823 58.0814 143.736C57.5351 143.465 56.9818 143.207 56.4249 142.959C52.8936 141.142 51.6746 138.457 50.0305 134.969C49.7469 134.39 49.4621 133.812 49.1763 133.233C48.4304 131.717 47.6979 130.196 46.9686 128.672C46.0845 126.83 45.1861 124.995 44.2882 123.16C43.5887 121.73 42.8917 120.299 42.2034 118.864C40.9078 116.177 39.563 113.595 37.9316 111.094C37.4857 110.352 37.4857 110.352 37.4857 109.723Z" fill="#E7AC77"/>
<path d="M160.001 119.153C162.015 120.234 163.317 121.73 164.118 123.871C164.3 124.952 164.372 125.944 164.118 127.015C163.542 127.748 163.318 127.933 162.385 128.096C161.598 127.958 161.598 127.958 161.066 127.487C160.683 126.759 160.539 126.237 160.377 125.443C160.15 124.41 160.04 124.202 159.235 123.419C158.026 122.665 157.371 122.475 155.928 122.614C154.699 123.274 153.866 123.793 153.408 125.129C153.252 125.693 153.252 125.693 153.093 126.268C152.778 127.33 152.778 127.33 152.148 127.958C151.268 128.071 150.781 128.115 150.06 127.573C149.352 126.659 149.461 125.817 149.498 124.698C149.83 122.576 151.257 121.176 152.858 119.855C154.952 118.387 157.598 118.341 160.001 119.153Z" fill="#542B11"/>
<path d="M120.096 119.136C121.904 119.925 123.333 121.655 124.177 123.4C124.427 124.186 124.521 124.817 124.526 125.64C124.531 125.877 124.536 126.115 124.542 126.359C124.398 127.183 124.141 127.456 123.482 127.958C122.619 128.088 122.132 128.091 121.376 127.644C120.854 126.85 120.741 126.047 120.541 125.13C120.209 124.13 119.555 123.585 118.757 122.928C117.765 122.433 117.018 122.504 115.922 122.614C114.415 123.482 113.966 124.152 113.5 125.817C113.441 126.087 113.381 126.357 113.32 126.636C113.087 127.33 113.087 127.33 112.142 127.958C111.095 127.856 110.691 127.767 109.937 127.015C109.582 125.04 109.928 123.379 110.976 121.685C113.29 118.909 116.666 118.12 120.096 119.136Z" fill="#52290E"/>
<path d="M41.8958 143.678C42.5172 144.027 42.5172 144.027 43.1558 144.621C43.2924 145.51 43.2924 145.51 43.2936 146.586C43.7382 155.792 50.8436 164.033 57.3052 170.007C57.8925 170.537 58.4815 171.065 59.0722 171.591C61.6344 173.918 64.0294 176.435 66.4662 178.89C66.1543 179.046 66.1543 179.046 65.8362 179.204C62.7798 177.023 59.8341 174.769 57.016 172.288C56.8532 172.145 56.6904 172.003 56.5226 171.856C49.9853 166.099 42.5994 157.693 41.2657 148.708C41.2298 148.074 41.2107 147.438 41.2067 146.802C41.2022 146.481 41.1977 146.16 41.1931 145.828C41.2652 144.942 41.4381 144.431 41.8958 143.678Z" fill="#D9965B"/>
<path d="M231.844 143.678C232.156 143.834 232.156 143.834 232.474 143.992C232.716 148.109 232.378 151.27 230.584 154.996C230.493 155.192 230.402 155.388 230.308 155.59C228.266 159.928 225.335 163.722 222.07 167.217C221.478 167.855 220.921 168.512 220.366 169.183C220.1 169.481 219.833 169.78 219.559 170.087C219.351 170.087 219.143 170.087 218.929 170.087C218.929 170.295 218.929 170.502 218.929 170.716C218.511 171.148 218.511 171.148 217.905 171.659C217.673 171.855 217.441 172.051 217.203 172.253C216.81 172.582 216.81 172.582 216.409 172.917C216.131 173.155 215.853 173.393 215.566 173.639C213.785 175.15 211.964 176.593 210.089 177.986C209.886 178.139 209.684 178.292 209.475 178.449C208.016 179.519 208.016 179.519 206.959 179.519C208.448 178.024 209.939 176.531 211.431 175.038C211.938 174.531 212.444 174.023 212.95 173.515C213.68 172.783 214.411 172.052 215.142 171.321C215.366 171.096 215.591 170.87 215.822 170.637C217.021 169.44 218.242 168.324 219.559 167.258C220.339 166.457 221.043 165.596 221.764 164.742C222.008 164.467 222.253 164.191 222.505 163.907C226.954 158.794 230.639 152.366 230.782 145.464C230.913 144.523 231.103 144.247 231.844 143.678Z" fill="#D9965B"/>
<path d="M217.039 130.473C217.351 130.629 217.351 130.629 217.669 130.788C216.884 132.432 216.095 134.075 215.302 135.716C215.034 136.271 214.768 136.827 214.502 137.384C210.771 145.201 206.714 151.535 199.84 156.906C198.6 157.898 197.425 158.96 196.249 160.026C196.041 159.923 195.833 159.819 195.619 159.712C196.009 159.146 196.404 158.584 196.8 158.022C197.019 157.708 197.238 157.395 197.464 157.072C198.139 156.253 198.483 156.074 199.399 155.625C200.026 155.001 200.621 154.377 201.21 153.719C201.378 153.533 201.546 153.347 201.719 153.156C202.055 152.784 202.391 152.412 202.725 152.039C203.095 151.63 203.473 151.227 203.853 150.827C207.913 146.494 210.759 141.256 213.667 136.129C214.399 134.848 215.153 133.582 215.917 132.32C216.092 132.03 216.092 132.03 216.271 131.734C216.527 131.314 216.783 130.893 217.039 130.473Z" fill="#D9965B"/>
<path d="M56.386 130.473C56.5939 130.473 56.8018 130.473 57.016 130.473C57.141 130.691 57.266 130.909 57.3948 131.134C63.6337 142.223 63.6337 142.223 71.5063 152.167C72.0914 152.827 72.6704 153.493 73.2474 154.161C74.131 155.191 74.131 155.191 75.2716 155.888C76.1961 156.412 76.552 157.122 77.0976 158.022C77.2909 158.337 77.4842 158.653 77.6834 158.978C77.9002 159.341 77.9002 159.341 78.1214 159.712C76.816 159.177 75.8395 158.253 74.7942 157.334C74.4007 156.993 74.0069 156.651 73.6129 156.31C73.4176 156.141 73.2223 155.972 73.021 155.798C71.9486 154.881 70.846 154.001 69.743 153.121C64.9275 149.049 62.2023 142.751 59.4179 137.233C59.2605 136.921 59.103 136.61 58.9407 136.289C57.9907 134.384 57.143 132.463 56.386 130.473Z" fill="#DA975C"/>
<path d="M246.335 107.208C246.646 107.364 246.646 107.364 246.965 107.523C246.82 107.757 246.82 107.757 246.673 107.995C242.568 114.661 239.121 121.576 235.78 128.648C233.866 132.693 231.918 136.68 229.639 140.534C228.288 140.223 226.936 139.912 225.544 139.591C225.856 138.865 226.168 138.138 226.489 137.39C226.593 137.598 226.697 137.805 226.804 138.019C227.758 138.226 227.758 138.226 228.694 138.333C228.822 137.994 228.822 137.994 228.952 137.648C229.322 136.765 229.751 135.979 230.24 135.156C230.42 134.85 230.601 134.544 230.787 134.229C231.077 133.741 231.077 133.741 231.372 133.244C234.006 128.768 236.522 124.241 238.972 119.663C243.809 110.627 243.809 110.627 246.335 107.208Z" fill="#D9965B"/>
<path d="M27.4055 107.837C28.6715 108.258 29.0259 109.049 29.6893 110.136C29.891 110.463 29.891 110.463 30.0968 110.796C32.4964 114.753 34.5937 118.898 36.7563 122.989C38.9518 127.132 41.271 131.164 43.7771 135.127C43.9834 135.455 44.1897 135.783 44.4023 136.12C44.5873 136.411 44.7724 136.703 44.9631 137.003C45.3608 137.705 45.3608 137.705 45.3608 138.333C46.4523 138.022 46.4523 138.022 47.5659 137.705C47.7738 138.327 47.9817 138.95 48.1959 139.591C47.3559 139.801 46.5158 140.01 45.6758 140.22C45.4403 140.278 45.2048 140.337 44.9621 140.398C44.7818 140.443 44.6016 140.488 44.4158 140.534C41.0875 134.875 38.2299 128.954 35.4184 123.026C34.1872 120.433 32.9033 117.871 31.5793 115.324C31.3341 114.851 31.3341 114.851 31.084 114.368C29.9233 112.151 28.6844 109.988 27.4055 107.837Z" fill="#D9965B"/>
<path d="M132.617 136.761C133.622 137.24 134.436 137.784 135.137 138.648C135.245 139.361 135.245 139.361 135.23 140.184C135.227 140.479 135.224 140.774 135.221 141.077C135.213 141.384 135.205 141.691 135.197 142.008C135.19 142.474 135.19 142.474 135.184 142.949C135.172 143.716 135.157 144.483 135.137 145.25C132.744 144.556 130.269 143.121 128.936 140.947C128.302 139.35 128.302 139.35 128.522 138.333C129.783 136.823 130.667 136.629 132.617 136.761Z" fill="#FBA79C"/>
<path d="M143.643 136.761C144.588 137.233 144.588 137.233 145.218 138.019C145.43 139.477 145.378 140.185 144.765 141.517C143.696 142.713 142.489 143.481 141.123 144.307C140.817 144.501 140.512 144.696 140.197 144.896C139.548 145.25 139.548 145.25 138.918 145.25C138.853 144.189 138.814 143.129 138.78 142.067C138.761 141.768 138.743 141.469 138.724 141.16C138.671 138.988 138.671 138.988 139.372 138.02C140.793 136.743 141.744 136.456 143.643 136.761Z" fill="#FCA89C"/>
<path d="M40.9507 116.011C41.1586 116.011 41.3666 116.011 41.5808 116.011C41.9871 116.564 41.9871 116.564 42.4519 117.353C42.6263 117.648 42.8006 117.943 42.9802 118.247C43.262 118.736 43.262 118.736 43.5495 119.234C43.7445 119.57 43.9395 119.907 44.1404 120.253C46.7258 124.77 49.2044 129.414 51.186 134.227C52.4769 137.358 53.4388 139.671 56.701 141.163C56.9089 141.163 57.1168 141.163 57.331 141.163C57.7469 142.097 58.1627 143.03 58.5911 143.993C58.1753 143.785 57.7595 143.578 57.331 143.364C57.0306 143.227 56.7302 143.09 56.4207 142.949C52.9845 141.161 51.7622 138.659 50.1487 135.25C49.8801 134.704 49.6105 134.158 49.3399 133.613C48.6363 132.189 47.9467 130.759 47.2598 129.326C46.5546 127.863 45.8354 126.406 45.1178 124.948C44.0761 122.826 43.0389 120.702 42.0135 118.573C41.8508 118.236 41.8508 118.236 41.6849 117.893C40.9507 116.363 40.9507 116.363 40.9507 116.011Z" fill="#D9965B"/>
<path d="M232.159 116.64C232.367 116.744 232.575 116.848 232.789 116.955C231.387 119.782 229.983 122.608 228.575 125.433C227.921 126.744 227.268 128.056 226.617 129.37C225.988 130.639 225.357 131.907 224.724 133.174C224.483 133.655 224.244 134.138 224.006 134.62C220.805 141.098 220.805 141.098 218.082 142.735C217.789 142.916 217.495 143.098 217.193 143.285C216.409 143.678 216.409 143.678 215.464 143.678C216.458 141.296 216.458 141.296 217.433 140.809C217.719 140.718 218.004 140.628 218.299 140.534C220.828 139.203 221.689 137.177 222.768 134.639C223.03 134.047 223.295 133.457 223.56 132.866C223.742 132.462 223.922 132.057 224.102 131.652C226.417 126.448 228.984 121.376 232.159 116.64Z" fill="#D7955B"/>
<path d="M104.267 179.205C105.73 179.382 106.834 180.019 108.067 180.777C108.274 180.903 108.482 181.03 108.696 181.16C114.73 184.893 121.893 190.713 124.021 197.879C124.051 198.045 124.081 198.211 124.112 198.383C123.143 197.465 122.37 196.499 121.592 195.416C119.959 193.216 118.135 191.238 116.237 189.265C115.99 189.005 115.743 188.746 115.488 188.478C112.399 185.307 108.812 182.496 105.1 180.085C104.825 179.898 104.55 179.711 104.267 179.519C104.267 179.415 104.267 179.311 104.267 179.205Z" fill="#F5BA86"/>
<path d="M168.843 180.148C168.448 180.417 168.448 180.417 168.044 180.692C162.029 184.849 156.56 189.811 152.171 195.668C151.518 196.496 151.518 196.496 150.888 196.811C151.588 192.039 157.182 186.936 160.838 184.171C162.011 183.314 163.215 182.511 164.433 181.72C164.886 181.419 164.886 181.419 165.348 181.113C167.598 179.68 167.598 179.68 168.843 180.148Z" fill="#F4BA86"/>
<path d="M48.5109 143.364C52.5907 143.114 55.9054 146.08 58.9688 148.458C59.156 148.644 59.3432 148.831 59.5361 149.023C59.5361 149.334 59.5361 149.645 59.5361 149.966C58.028 149.421 56.6606 148.66 55.2638 147.883C55.0144 147.744 54.7649 147.606 54.5078 147.463C52.4449 146.304 50.4063 145.099 48.5109 143.678C48.5109 143.574 48.5109 143.47 48.5109 143.364Z" fill="#F4B984"/>
<path d="M225.229 143.364C225.229 143.571 225.229 143.779 225.229 143.992C224.711 144.375 224.711 144.375 223.984 144.802C223.719 144.959 223.453 145.116 223.18 145.278C222.895 145.444 222.609 145.61 222.315 145.781C221.885 146.033 221.885 146.033 221.447 146.291C220.873 146.628 220.299 146.964 219.724 147.299C219.042 147.699 218.366 148.104 217.691 148.514C217.359 148.714 217.027 148.915 216.685 149.121C216.398 149.295 216.111 149.469 215.816 149.648C215.596 149.753 215.376 149.858 215.149 149.966C214.941 149.862 214.733 149.758 214.519 149.652C214.66 149.534 214.801 149.416 214.946 149.294C215.813 148.562 216.651 147.842 217.433 147.018C219.829 144.735 221.842 143.264 225.229 143.364Z" fill="#F5BA85"/>
<path d="M12.9152 100.292C15.2319 100.583 17.2305 101.491 18.7095 103.362C19.6242 104.688 20.432 106.06 21.1054 107.523C21.0014 107.73 20.8975 107.938 20.7904 108.152C20.5731 107.886 20.3559 107.62 20.1321 107.346C17.2308 103.806 17.2308 103.806 13.6215 101.031C13.3884 100.891 13.1554 100.751 12.9152 100.606C12.9152 100.502 12.9152 100.399 12.9152 100.292Z" fill="#F5BA86"/>
<path d="M261.14 100.606C260.919 100.758 260.698 100.911 260.47 101.068C257.584 103.103 255.296 105.264 253.265 108.151C253.161 107.944 253.057 107.736 252.95 107.523C253.379 106.749 253.379 106.749 253.993 105.833C254.794 104.659 254.794 104.659 255.434 103.397C255.951 102.526 256.657 102.168 257.517 101.647C257.826 101.458 258.134 101.269 258.452 101.074C259.571 100.418 259.9 100.235 261.14 100.606Z" fill="#F6BB87"/>
<path d="M57.0161 127.33C58.3682 127.849 59.1831 128.819 60.1661 129.845C60.0622 130.052 59.9582 130.26 59.8511 130.474C59.3767 130.07 58.9046 129.663 58.4336 129.255C58.1704 129.029 57.9073 128.803 57.6362 128.57C57.4316 128.368 57.2269 128.166 57.0161 127.958C57.0161 127.751 57.0161 127.543 57.0161 127.33Z" fill="#EEB481"/>
<path d="M216.409 127.33C216.721 127.433 217.033 127.537 217.354 127.644C216.262 128.578 216.262 128.578 215.149 129.53C215.149 128.587 215.149 128.587 215.779 127.899C215.987 127.711 216.195 127.523 216.409 127.33Z" fill="#F6BB86"/>
</g>
<defs>
<clipPath id="clip0_2335_102">
<rect width="275" height="249" fill="white"/>
</clipPath>
</defs>
</svg>
